<?xml version="1.0" encoding="utf-8"?>
<!-- Generator: Adobe Illustrator 27.5.0, SVG Export Plug-In . SVG Version: 6.00 Build 0)  -->
<svg version="1.1" id="Layer_2" xmlns="http://www.w3.org/2000/svg" xmlns:xlink="http://www.w3.org/1999/xlink" x="0px" y="0px"
	 viewBox="0 0 388.356 529.211" style="enable-background:new 0 0 388.356 529.211;" xml:space="preserve">
<g>
	<g>
		<g>
			<g>
				<path style="fill:#8AC843;" d="M296.2,331.597c0.01-0.001,0.019-0.003,0.028-0.004c2.222-0.362,3.738-2.432,3.392-4.657
					c-0.013-0.087-0.06-0.345-0.138-0.761c-2.831-15.188-11.244-66.861-0.664-94.172c0.817-2.109-0.231-4.482-2.34-5.298
					c-2.111-0.816-4.48,0.23-5.3,2.34c-11.36,29.325-2.68,82.908,0.25,98.631l0.101,0.544
					C291.906,330.43,293.988,331.941,296.2,331.597z"/>
				<path style="fill:#669629;" d="M295.578,332.465c-2.352,0-4.449-1.715-4.856-4.107l-0.099-0.533
					c-2.94-15.777-11.646-69.551-0.208-99.076c0.981-2.525,3.833-3.784,6.359-2.81c2.528,0.981,3.787,3.834,2.809,6.36
					c-10.502,27.109-2.116,78.593,0.705,93.726c0.081,0.434,0.13,0.702,0.142,0.793c0.412,2.643-1.414,5.15-4.07,5.582l-0.035,0.006
					C296.075,332.446,295.826,332.465,295.578,332.465z M295.007,227.248c-1.315,0-2.559,0.797-3.064,2.093
					c-11.281,29.121-2.629,82.515,0.292,98.185l0.101,0.546c0.302,1.774,1.977,2.995,3.735,2.717l0.024-0.003
					c1.774-0.29,2.991-1.958,2.716-3.722c-0.014-0.093-0.059-0.339-0.134-0.738c-2.84-15.241-11.279-67.107-0.622-94.618
					c0.653-1.685-0.187-3.586-1.872-4.24C295.797,227.318,295.398,227.248,295.007,227.248z"/>
			</g>
			<path style="opacity:0.5;fill:#8AC843;" d="M291.179,229.045c0.717-1.846,2.621-2.878,4.499-2.561
				c-0.479,0.421-0.878,0.945-1.125,1.581c-11.36,29.325-2.68,82.908,0.25,98.631l0.101,0.544c0.302,1.777,1.713,3.083,3.401,3.356
				c-0.564,0.505-1.272,0.865-2.076,0.996c-0.009,0.001-0.019,0.003-0.028,0.004c-2.212,0.344-4.294-1.167-4.671-3.377l-0.101-0.544
				C288.499,311.953,279.819,258.37,291.179,229.045z"/>
		</g>
		<g>
			<g>
				<g>
					<path style="fill:#8AC843;" d="M296.529,203.819c0.355-26.167,64.285-19.544,76.956,41.507
						c12.671,61.051-6.047,90.712-12.095,76.601c-6.047-14.111-9.126-26.316-43.196-31.892s-54.733-35.308-55.003-57.092
						C262.959,214.225,275.865,196.372,296.529,203.819z"/>
					<path style="fill:#669629;" d="M365.244,326.202c-1.338,0-3.21-0.693-4.606-3.952c-0.366-0.854-0.722-1.702-1.074-2.541
						c-5.332-12.717-9.937-23.701-41.501-28.867c-32.951-5.392-55.399-34.286-55.691-57.891
						c-0.144-11.59,4.546-22.193,12.238-27.669c5.982-4.259,13.275-5.149,21.154-2.592c0.656-7.754,7.048-13.093,16.961-14.043
						c20.283-1.941,52.802,14.304,61.563,56.512c10.169,48.996,0.454,78.247-7.841,80.857
						C366.149,326.111,365.732,326.202,365.244,326.202z M287.257,202.911c-4.279,0-8.233,1.242-11.697,3.707
						c-7.262,5.169-11.687,15.253-11.55,26.315c0.246,19.913,19.259,50.556,54.316,56.294c32.461,5.312,37.229,16.683,42.748,29.849
						c0.35,0.835,0.704,1.678,1.068,2.528c0.698,1.629,1.922,3.456,3.812,2.85c6.176-1.942,17.246-28.283,6.728-78.961
						c-8.554-41.216-40.122-57.097-59.801-55.212c-9.624,0.922-15.431,5.987-15.533,13.55l-0.016,1.149l-1.081-0.389
						C293.141,203.469,290.126,202.911,287.257,202.911z"/>
				</g>
				<g>
					<path style="fill:#8AC843;" d="M296.529,203.819c0.355-26.167,64.285-19.544,76.956,41.507
						c12.671,61.051-6.047,90.712-12.095,76.601c-6.047-14.111-9.126-26.316-43.196-31.892s-54.733-35.308-55.003-57.092
						C262.959,214.225,275.865,196.372,296.529,203.819z"/>
					<path style="fill:#669629;" d="M365.244,326.202c-1.338,0-3.21-0.693-4.606-3.952c-0.366-0.854-0.722-1.702-1.074-2.541
						c-5.332-12.717-9.937-23.701-41.501-28.867c-32.951-5.392-55.399-34.286-55.691-57.891
						c-0.144-11.59,4.546-22.193,12.238-27.669c5.982-4.259,13.275-5.149,21.154-2.592c0.656-7.754,7.048-13.093,16.961-14.043
						c20.283-1.941,52.802,14.304,61.563,56.512c10.169,48.996,0.454,78.247-7.841,80.857
						C366.149,326.111,365.732,326.202,365.244,326.202z M287.257,202.911c-4.279,0-8.233,1.242-11.697,3.707
						c-7.262,5.169-11.687,15.253-11.55,26.315c0.246,19.913,19.259,50.556,54.316,56.294c32.461,5.312,37.229,16.683,42.748,29.849
						c0.35,0.835,0.704,1.678,1.068,2.528c0.698,1.629,1.922,3.456,3.812,2.85c6.176-1.942,17.246-28.283,6.728-78.961
						c-8.554-41.216-40.122-57.097-59.801-55.212c-9.624,0.922-15.431,5.987-15.533,13.55l-0.016,1.149l-1.081-0.389
						C293.141,203.469,290.126,202.911,287.257,202.911z"/>
				</g>
				<g>
					<path style="fill:#669629;" d="M280.208,203.115c1.633-0.527,3.241-1.319,4.993-1.491c0.864-0.12,1.728-0.372,2.606-0.383
						l2.645-0.065c3.51,0.202,7.041,0.893,10.312,2.21c6.62,2.512,12.456,6.61,17.763,11.117l3.836,3.557l3.66,3.723l3.447,3.908
						c1.125,1.322,2.195,2.687,3.294,4.028c4.277,5.458,8.19,11.161,11.812,17.068c0.963,1.439,1.805,2.951,2.635,4.47l2.521,4.535
						c1.602,3.063,3.065,6.201,4.54,9.324l1.994,4.786l0.996,2.392l0.869,2.441l1.737,4.88l1.492,4.959
						c3.746,13.263,5.953,27.055,5.267,40.83l-0.327-0.025c0.245-13.702-2.388-27.343-6.509-40.33l-1.592-4.866l-1.831-4.78
						l-0.915-2.388l-1.04-2.338l-2.078-4.672c-1.529-3.046-3.043-6.102-4.692-9.08l-2.589-4.405
						c-0.851-1.475-1.714-2.942-2.696-4.335c-3.73-5.691-7.762-11.204-12.117-16.426c-1.1-1.294-2.172-2.613-3.295-3.886
						l-3.415-3.77l-3.514-3.664l-3.672-3.49c-4.916-4.615-10.394-8.652-16.457-11.453c-3.002-1.489-6.248-2.364-9.548-2.829
						c-3.329-0.49-6.695-0.05-10.02,0.755L280.208,203.115z"/>
				</g>
				<g>
					<g>
						<path style="fill:#669629;" d="M369.133,230.95c-3.839-3.594-8.053-6.777-12.454-9.627c-4.398-2.855-9.04-5.33-13.895-7.241
							c-4.866-1.893-9.951-3.087-15.085-3.647c-2.57-0.31-5.162-0.301-7.755-0.166c-2.595,0.165-5.162,0.635-7.742,1.2l-0.052-0.155
							c2.445-1.015,5.02-1.768,7.667-2.18c2.647-0.385,5.341-0.48,8.021-0.331c2.675,0.218,5.327,0.673,7.91,1.377
							c2.572,0.736,5.085,1.642,7.531,2.689c4.89,2.103,9.509,4.758,13.855,7.775c4.318,3.058,8.411,6.426,12.113,10.191
							L369.133,230.95z"/>
					</g>
					<g>
						<path style="fill:#669629;" d="M377.722,270.195c-2.459-4.142-5.336-8.029-8.424-11.707
							c-3.082-3.687-6.447-7.127-10.065-10.257c-3.636-3.125-7.659-5.704-11.74-8.127c-4.106-2.44-8.557-4.114-13.146-5.666
							l0.032-0.161c4.809,0.636,9.539,2.144,13.897,4.388c4.321,2.309,8.255,5.279,11.825,8.584
							c3.571,3.308,6.854,6.903,9.834,10.725c2.944,3.849,5.651,7.876,7.93,12.144L377.722,270.195z"/>
					</g>
					<g>
						<path style="fill:#669629;" d="M312.104,287.15c-2.963-6.06-5.349-12.392-7.315-18.854
							c-1.899-6.479-3.373-13.111-4.061-19.863c-0.724-6.73-0.764-13.631,0.641-20.335c0.768-3.329,1.77-6.609,3.174-9.721
							c1.457-3.087,3.248-6.001,5.387-8.622l0.132,0.096c-1.749,2.883-3.262,5.864-4.466,8.967c-1.147,3.125-2.038,6.33-2.62,9.598
							c-1.153,6.531-1.482,13.23-0.943,19.897c0.515,6.669,1.814,13.277,3.544,19.76c1.744,6.48,3.917,12.87,6.673,19.005
							L312.104,287.15z"/>
					</g>
					<g>
						<path style="fill:#669629;" d="M375.085,309.141c-0.23-3.369-0.581-6.736-1.594-9.943c-0.374-1.635-1.052-3.177-1.611-4.747
							c-0.718-1.51-1.357-3.054-2.232-4.478c-1.65-2.9-3.677-5.548-5.778-8.122c-2.097-2.587-4.394-5.017-6.863-7.342l0.091-0.137
							c1.527,0.791,2.927,1.793,4.26,2.873c0.682,0.524,1.293,1.128,1.944,1.693l1.808,1.841c2.347,2.529,4.159,5.51,5.695,8.575
							c0.827,1.507,1.412,3.13,2.069,4.709c0.499,1.642,1.11,3.245,1.413,4.934c0.818,3.328,0.952,6.762,0.963,10.144
							L375.085,309.141z"/>
					</g>
					<g>
						<path style="fill:#669629;" d="M340.618,296.418c-3.341-4.497-5.764-9.627-7.619-14.91
							c-1.826-5.303-3.107-10.787-3.944-16.338c-0.832-5.546-1.325-11.19-0.908-16.824c0.495-5.572,1.483-11.352,4.476-16.176
							l0.143,0.08c-2.103,5.162-2.779,10.687-2.983,16.189c-0.196,5.506-0.076,11.051,0.571,16.555
							c0.664,5.498,1.771,10.956,3.422,16.255c1.63,5.297,3.827,10.469,6.974,15.073L340.618,296.418z"/>
					</g>
					<g>
						<path style="fill:#669629;" d="M287.147,276.374c-3.085-6.032-5.2-12.544-6.56-19.194c-1.316-6.662-1.886-13.491-1.515-20.306
							c0.38-6.784,1.613-13.696,4.767-19.875c1.601-3.053,3.594-5.934,6.089-8.324c2.484-2.391,5.423-4.301,8.615-5.481l0.067,0.149
							c-5.989,3.177-10.539,8.376-13.302,14.38c-2.823,5.983-4.377,12.571-4.928,19.239c-0.527,6.678-0.132,13.439,1.012,20.066
							c1.134,6.628,3.022,13.162,5.902,19.272L287.147,276.374z"/>
					</g>
				</g>
			</g>
			<path style="opacity:0.5;fill:#8AC843;" d="M263.191,232.943c0.27,21.784,20.933,51.516,55.003,57.092
				c34.07,5.576,37.149,17.781,43.196,31.892c6.048,14.111,24.766-15.55,12.095-76.601s-76.601-67.674-76.956-41.507
				C275.865,196.372,262.959,214.225,263.191,232.943z M298.73,210.918c31.277,8.444,61.418,76.541,62.394,78.547
				c0,0-4.117-43.04-37.643-74.38c-20.624-19.279-4.232-22.846,6.863-18.984c11.095,3.861,41.135,17.323,44.906,70.233
				c2.639,37.029-9.07,52.092-9.07,52.092c-5.473-26.867-28.078-26.507-59.936-48.008
				C274.384,248.916,267.453,202.475,298.73,210.918z"/>
			<path style="opacity:0.5;fill:#8AC843;" d="M328.792,199.76c3.273,0.108,6.003,1.699,8.774,3.307
				c2.647,1.537,5.187,3.259,7.596,5.147c4.753,3.725,8.957,8.288,12.471,13.189c7.477,10.426,12.016,22.761,12.882,35.576
				c0.514,7.606-0.439,15.206-2.475,22.54c-0.153,0.55-0.998,0.127-0.887-0.374c2.796-12.656,1.683-26.377-3.057-38.443
				c-4.214-10.726-11.465-19.975-20.618-26.936c-2.441-1.856-4.932-3.631-7.582-5.182c-2.84-1.662-5.939-2.834-8.353-5.125
				C326.323,202.301,326.879,199.697,328.792,199.76z"/>
			<path style="opacity:0.5;fill:#8AC843;" d="M292.389,214.416c21.557,8.435,39.548,25.226,49.364,46.213
				c2.75,5.878,4.764,12.031,6.077,18.384c0.136,0.657-0.901,0.631-1.055,0.085c-5.945-21.135-19.749-39.929-38.41-51.57
				c-5.266-3.285-10.863-5.987-16.724-8.031c-1.36-0.474-2.525-1.827-2.294-3.343C289.555,214.788,291.081,213.905,292.389,214.416z
				"/>
		</g>
	</g>
	<g>
		<g>
			<g>
				<path style="fill:#8AC843;" d="M232.623,320.052c-0.267,0-0.539-0.026-0.811-0.081c-2.07-0.416-3.459-2.325-3.274-4.381
					c0-0.279-0.022-0.758-0.051-1.466c-1.421-36.419,3.466-104.49,13.76-191.675c0.264-2.247,2.299-3.849,4.547-3.588
					c2.246,0.266,3.853,2.301,3.587,4.548c-10.245,86.774-15.113,154.39-13.709,190.395c0.072,1.822,0.091,2.312-0.038,2.957
					C236.244,318.707,234.533,320.052,232.623,320.052z M228.602,315.148c-0.016,0.081-0.043,0.203-0.058,0.372
					C228.559,315.396,228.578,315.272,228.602,315.148z"/>
				<path style="fill:#669629;" d="M232.623,320.871c-0.32,0-0.646-0.032-0.972-0.098c-2.465-0.496-4.154-2.755-3.929-5.258
					c-0.003-0.149-0.018-0.502-0.039-1.003l-0.014-0.355c-1.422-36.464,3.465-104.582,13.765-191.803
					c0.315-2.686,2.763-4.609,5.455-4.307c1.306,0.155,2.471,0.808,3.285,1.838c0.813,1.032,1.176,2.317,1.022,3.621
					c-10.24,86.734-15.107,154.304-13.704,190.266c0.074,1.85,0.095,2.41-0.054,3.15
					C236.978,319.211,234.953,320.871,232.623,320.871z M229.355,315.614c-0.141,1.731,0.982,3.226,2.618,3.554
					c1.792,0.357,3.509-0.83,3.858-2.568c0.106-0.531,0.095-0.936,0.023-2.763c-1.406-36.043,3.464-103.705,13.714-190.522
					c0.103-0.869-0.139-1.726-0.682-2.414c-0.542-0.686-1.319-1.122-2.188-1.226c-1.794-0.206-3.427,1.08-3.638,2.872
					c-10.29,87.14-15.174,155.165-13.755,191.546l0.014,0.354c0.014,0.347,0.026,0.629,0.033,0.848l0.054,0.01
					c-0.021,0.104-0.037,0.206-0.049,0.312L229.355,315.614z"/>
			</g>
			<path style="opacity:0.5;fill:#8AC843;" d="M246.794,118.862c-0.613-0.071-1.205,0.007-1.755,0.188
				c1.272,0.821,2.048,2.306,1.858,3.911c-10.245,86.774-15.113,154.39-13.709,190.395c0.072,1.822,0.091,2.312-0.038,2.957
				c-0.302,1.503-1.394,2.64-2.756,3.082c0.42,0.272,0.897,0.471,1.418,0.576c0.272,0.054,0.544,0.081,0.811,0.081
				c1.91,0,3.621-1.345,4.011-3.29c0.13-0.645,0.11-1.134,0.038-2.957c-1.405-36.005,3.464-103.621,13.709-190.395
				C250.647,121.163,249.04,119.128,246.794,118.862z"/>
		</g>
		<g>
			<g>
				<g>
					<path style="fill:#8AC843;" d="M250.515,115.498c-10.235-17.542,33.088-36.928,67.781-3.196
						c21.966,21.358,30.973,47.725,27.485,55.992c-9.668-6.963-21.473-14.063-46.359-4.137c-24.886,9.926-50.523-1.575-59.42-15.952
						C232.357,135.851,233.795,118.815,250.515,115.498z"/>
					<path style="fill:#669629;" d="M345.781,169.113c-0.17,0-0.338-0.053-0.478-0.155c-10.465-7.533-21.821-13.515-45.578-4.038
						c-11.49,4.582-24.367,4.995-36.261,1.155c-10.459-3.376-19.491-9.896-24.159-17.44c-4.765-7.699-5.894-16.691-2.947-23.464
						c2.27-5.218,6.728-8.742,12.93-10.242c-2.518-5.285-0.752-10.949,4.858-15.338c11.682-9.134,40.324-11.595,64.72,12.123
						c22.368,21.749,31.328,48.225,27.669,56.897c-0.097,0.23-0.293,0.403-0.533,0.47
						C345.93,169.103,345.856,169.113,345.781,169.113z M276.453,94.663c-8.988,0-16.587,2.534-21.297,6.219
						c-5.333,4.171-6.766,9.349-3.934,14.203c0.134,0.229,0.149,0.507,0.04,0.749c-0.109,0.242-0.328,0.416-0.588,0.467
						c-6.209,1.232-10.64,4.525-12.814,9.521c-2.736,6.288-1.649,14.699,2.838,21.95c8.097,13.088,32.903,25.801,58.419,15.622
						c23.802-9.491,36.013-3.629,46.24,3.59c2.358-9.032-6.902-33.939-27.633-54.097C303.971,99.516,288.884,94.663,276.453,94.663z
						"/>
				</g>
				<g>
					<path style="fill:#669629;" d="M239.382,121.561c0.874-1.004,1.627-2.174,2.723-2.989c0.526-0.426,1-0.939,1.579-1.297
						l1.733-1.102c2.415-1.271,5.039-2.224,7.742-2.657c5.407-0.979,10.927-0.589,16.26,0.284l3.974,0.83l3.924,1.011l3.856,1.219
						c1.277,0.429,2.534,0.908,3.802,1.36c5.029,1.918,9.912,4.144,14.685,6.622c1.216,0.572,2.381,1.24,3.541,1.918l3.491,2.007
						c2.291,1.396,4.52,2.897,6.75,4.383l3.241,2.385l1.619,1.192l1.555,1.275l3.108,2.55l2.977,2.7
						c7.798,7.32,14.785,15.608,19.841,25.041l-0.227,0.114c-5.32-9.209-12.53-17.226-20.467-24.212l-3.005-2.598l-3.13-2.446
						l-1.564-1.222l-1.627-1.138l-3.252-2.275c-2.235-1.413-4.465-2.84-6.754-4.16l-3.484-1.893c-1.156-0.64-2.317-1.27-3.528-1.803
						c-4.758-2.291-9.645-4.343-14.63-6.074c-1.249-0.42-2.49-0.868-3.746-1.265l-3.779-1.14l-3.803-1.031l-3.838-0.851
						c-5.116-1.102-10.374-1.593-15.526-1.03c-2.592,0.211-5.101,0.928-7.481,1.94c-2.41,1.006-4.472,2.646-6.36,4.512
						L239.382,121.561z"/>
				</g>
				<g>
					<g>
						<path style="fill:#669629;" d="M309.649,104.485c-3.991-0.854-8.067-1.284-12.133-1.418
							c-4.066-0.138-8.144,0.073-12.137,0.745c-3.993,0.688-7.852,1.929-11.49,3.612c-1.833,0.822-3.553,1.865-5.223,2.993
							c-1.66,1.148-3.178,2.488-4.667,3.896l-0.097-0.082c1.22-1.653,2.631-3.185,4.226-4.518c1.606-1.315,3.359-2.457,5.201-3.43
							c1.866-0.926,3.812-1.684,5.811-2.249c2.005-0.539,4.038-0.943,6.084-1.226c4.093-0.558,8.227-0.642,12.324-0.375
							c4.095,0.305,8.164,0.907,12.133,1.929L309.649,104.485z"/>
					</g>
					<g>
						<path style="fill:#669629;" d="M331.065,127.143c-3.293-1.77-6.761-3.203-10.286-4.414c-3.525-1.218-7.138-2.159-10.797-2.793
							c-3.668-0.623-7.375-0.728-11.059-0.706c-3.707,0.02-7.336,0.689-11.008,1.493l-0.043-0.12
							c3.452-1.502,7.201-2.391,10.996-2.643c3.797-0.194,7.602,0.207,11.298,0.976c3.699,0.771,7.32,1.848,10.831,3.196
							c3.498,1.381,6.91,2.976,10.133,4.902L331.065,127.143z"/>
					</g>
					<g>
						<path style="fill:#669629;" d="M294.218,164.675c-4.395-2.844-8.515-6.1-12.408-9.609c-3.855-3.548-7.49-7.368-10.648-11.583
							c-3.175-4.185-5.963-8.758-7.711-13.778c-0.822-2.521-1.468-5.103-1.78-7.734c-0.267-2.636-0.241-5.29,0.132-7.889
							l0.127,0.011c-0.009,2.617,0.177,5.204,0.619,7.749c0.488,2.537,1.178,5.024,2.098,7.43c1.847,4.804,4.309,9.39,7.335,13.608
							c3.011,4.228,6.519,8.103,10.263,11.721c3.753,3.611,7.755,6.991,12.043,9.967L294.218,164.675z"/>
					</g>
					<g>
						<path style="fill:#669629;" d="M344.897,154.095c-1.501-2.148-3.082-4.246-5.039-5.974c-0.903-0.938-1.971-1.691-2.971-2.512
							c-1.081-0.717-2.124-1.488-3.276-2.084c-2.258-1.268-4.665-2.218-7.092-3.088c-2.43-0.881-4.929-1.577-7.502-2.136
							l0.006-0.127c1.332-0.085,2.664,0.021,3.982,0.205c0.664,0.076,1.311,0.232,1.97,0.348l1.939,0.501
							c2.573,0.742,4.971,2,7.218,3.423c1.153,0.671,2.192,1.516,3.26,2.303c0.988,0.892,2.037,1.713,2.914,2.715
							c1.875,1.886,3.339,4.115,4.7,6.359L344.897,154.095z"/>
					</g>
					<g>
						<path style="fill:#669629;" d="M316.887,159.428c-4.021-1.653-7.686-4.095-11.033-6.866c-3.336-2.796-6.383-5.93-9.16-9.285
							c-2.773-3.355-5.359-6.91-7.336-10.823c-1.901-3.903-3.557-8.142-3.497-12.547l0.127-0.004
							c0.668,4.274,2.429,8.218,4.495,11.959c2.073,3.74,4.372,7.378,7.005,10.78c2.642,3.39,5.562,6.577,8.78,9.439
							c3.203,2.87,6.734,5.43,10.669,7.231L316.887,159.428z"/>
					</g>
					<g>
						<path style="fill:#669629;" d="M273.311,167.497c-4.465-2.776-8.478-6.26-12.043-10.138
							c-3.541-3.903-6.652-8.216-9.133-12.896c-2.462-4.663-4.408-9.753-4.783-15.123c-0.157-2.671,0.015-5.384,0.718-7.971
							c0.695-2.584,1.884-5.03,3.535-7.091l0.104,0.072c-2.711,4.509-3.656,9.787-3.09,14.885c0.517,5.108,2.12,10.11,4.422,14.765
							c2.322,4.651,5.29,8.989,8.703,12.938c3.406,3.953,7.276,7.543,11.636,10.453L273.311,167.497z"/>
					</g>
				</g>
			</g>
			<path style="opacity:0.5;fill:#8AC843;" d="M318.296,112.302c-34.693-33.732-78.016-14.346-67.781,3.196
				c-16.72,3.318-18.158,20.353-10.513,32.706c8.897,14.377,34.534,25.879,59.42,15.952c24.886-9.926,36.691-2.826,46.359,4.137
				C349.269,160.027,340.262,133.66,318.296,112.302z M342.835,163.262c0,0-10.68-14.346-35.11-9.923
				c-28.763,5.206-76.485,1.259-66.028-26.196c6.868-18.033,56.679-5.53,74.065,9.648c17.385,15.178-15.209-18.421-42.381-26.123
				c-27.172-7.702,7.34-26.457,38.772-2.22C343.582,132.685,342.835,163.262,342.835,163.262z"/>
			<path style="opacity:0.5;fill:#8AC843;" d="M324.163,125.338c-7.022-8.18-14.745-15.032-24.668-19.493
				c-4.843-2.178-9.876-3.779-15.097-4.748c-3.45-0.64-14.664-3.136-13.543,3.395c0.111,0.65,0.918,1.342,1.512,1.523
				c2.232,0.68,4.598,0.625,6.9,0.892c2.241,0.259,4.458,0.642,6.664,1.108c4.43,0.935,8.762,2.213,12.955,3.929
				c8.451,3.459,17.04,8.122,23.496,14.689C323.214,127.479,324.974,126.282,324.163,125.338z"/>
			<path style="opacity:0.5;fill:#8AC843;" d="M313.1,141.177c-9.392-7.657-19.295-13.706-31.158-16.674
				c-5.79-1.449-11.676-2.222-17.645-2.259c-3.944-0.024-16.846-0.561-14.311,6.443c0.252,0.697,1.282,1.302,1.975,1.385
				c2.604,0.31,5.211-0.22,7.811-0.382c2.53-0.158,5.059-0.174,7.593-0.096c5.086,0.156,10.133,0.711,15.112,1.777
				c10.036,2.151,20.464,5.607,28.909,11.591C312.475,143.733,314.184,142.06,313.1,141.177z"/>
		</g>
	</g>
	<g>
		<g>
			<g>
				<path style="fill:#009140;" d="M148.679,318.05c-2.112,0-3.85-1.598-4.072-3.65c-0.056-0.274-0.171-0.739-0.338-1.426
					c-8.562-35.424-17.168-103.126-24.233-190.635c-0.181-2.255,1.499-4.23,3.754-4.412c2.232-0.206,4.23,1.497,4.413,3.753
					c7.032,87.096,15.566,154.349,24.03,189.37c0.427,1.771,0.542,2.247,0.542,2.905C152.775,316.216,150.941,318.05,148.679,318.05
					z M144.583,313.954c0,0.083-0.003,0.209,0.018,0.377C144.589,314.207,144.583,314.081,144.583,313.954z"/>
				<path style="fill:#00682A;" d="M148.679,318.87c-2.515,0-4.616-1.883-4.886-4.381c-0.033-0.142-0.117-0.486-0.235-0.974
					l-0.084-0.349c-8.572-35.464-17.185-103.212-24.254-190.762c-0.105-1.309,0.306-2.579,1.157-3.579c0.85-1,2.04-1.61,3.348-1.714
					c1.276-0.128,2.542,0.282,3.549,1.125c1.019,0.858,1.639,2.056,1.746,3.378c7.028,87.054,15.555,154.261,24.009,189.243
					c0.435,1.802,0.566,2.344,0.566,3.098C153.594,316.665,151.389,318.87,148.679,318.87z M145.412,314.257
					c0.201,1.73,1.597,2.974,3.267,2.974c1.807,0,3.277-1.47,3.277-3.277c0-0.541-0.09-0.934-0.518-2.707
					c-8.476-35.069-17.018-102.366-24.053-189.503c-0.071-0.88-0.486-1.682-1.167-2.254c-0.667-0.56-1.501-0.841-2.354-0.747
					c-0.882,0.07-1.674,0.477-2.242,1.142c-0.567,0.667-0.841,1.515-0.77,2.387c7.062,87.467,15.661,155.124,24.213,190.509
					l0.084,0.347c0.082,0.339,0.149,0.613,0.198,0.826h0.054c0,0.101,0.006,0.203,0.014,0.302H145.412z"/>
			</g>
			<path style="opacity:0.5;fill:#009140;" d="M152.233,311.049c-8.464-35.021-16.998-102.274-24.03-189.37
				c-0.182-2.256-2.181-3.959-4.413-3.753c-0.33,0.027-0.643,0.102-0.944,0.201c1.031,0.67,1.766,1.786,1.873,3.103
				c7.032,87.096,15.566,154.349,24.03,189.37c0.427,1.771,0.542,2.247,0.542,2.905c0,1.821-1.196,3.346-2.839,3.879
				c0.642,0.418,1.404,0.666,2.227,0.666c2.262,0,4.096-1.834,4.096-4.096C152.775,313.296,152.66,312.82,152.233,311.049z"/>
		</g>
		<g>
			<g>
				<g>
					<path style="fill:#268B36;" d="M114.209,103.84c-9.954-26.435-55.289-13.36-72.027,30.067
						c-13.547,35.147-11.992,64.944-30.729,66.699c0,0,14.975,3.753,33.47-10.987c18.495-14.74,69.401-0.382,92.888-33.727
						C162.271,121.165,131.997,94.312,114.209,103.84z"/>
					<path style="fill:#166821;" d="M16.224,201.875c-2.975,0-4.762-0.424-4.97-0.475c-0.387-0.098-0.648-0.459-0.618-0.858
						c0.03-0.398,0.343-0.717,0.741-0.754c11.912-1.115,15.381-14.715,20.182-33.54c2.494-9.781,5.322-20.867,9.859-32.637
						C52.616,104.556,76.124,89.39,93.611,89.39c0.039,0,0.078,0,0.117,0.002c9.808,0.037,17.379,4.877,20.913,13.315
						c8.062-3.77,18.47-0.89,25.641,7.216c8.32,9.401,12.217,26.539-1.802,46.441c-14.506,20.595-38.909,23.216-60.44,25.529
						c-13.712,1.472-25.553,2.744-32.607,8.365C33.009,200.16,22.211,201.875,16.224,201.875z M93.61,91.028
						c-16.927,0-39.729,14.806-50.664,43.172c-4.502,11.68-7.316,22.717-9.8,32.453c-4.278,16.773-7.533,29.537-16.698,33.536
						c5.771-0.077,16.168-1.81,27.965-11.211c7.426-5.918,19.487-7.214,33.452-8.715c21.185-2.275,45.196-4.854,59.276-24.843
						c13.469-19.122,9.82-35.478,1.914-44.412c-6.909-7.805-16.969-10.451-24.458-6.446c-0.21,0.115-0.454,0.128-0.675,0.045
						c-0.221-0.083-0.395-0.258-0.478-0.478c-3.167-8.41-10.17-13.061-19.721-13.098C93.685,91.028,93.646,91.028,93.61,91.028z"/>
				</g>
				<path style="fill:#166821;" d="M11.434,200.443c5.925-0.895,11.402-3.749,15.782-7.765c4.451-3.954,8.169-8.67,11.594-13.562
					c3.436-4.894,6.61-9.985,9.796-15.08l4.813-7.643c1.673-2.546,3.424-5.052,5.358-7.412c7.626-9.547,17.201-17.455,27.493-23.796
					c5.136-3.2,10.391-6.134,15.476-9.233c2.53-1.562,5.022-3.189,7.227-5.122c1.116-0.951,2.152-1.988,3.048-3.143
					c0.855-1.177,1.574-2.462,2.028-3.882c0.024-0.087,0.115-0.138,0.202-0.114c0.079,0.022,0.127,0.104,0.118,0.182
					c-0.225,1.518-0.787,2.987-1.559,4.336c-0.794,1.332-1.755,2.56-2.8,3.696c-2.129,2.241-4.553,4.122-6.987,5.938
					c-4.9,3.599-10.035,6.735-14.975,10.091c-9.911,6.611-19.556,13.657-27.253,22.716c-1.94,2.238-3.702,4.622-5.397,7.052
					l-5.002,7.484c-3.325,5.008-6.653,10.038-10.261,14.89c-3.639,4.816-7.592,9.477-12.285,13.35
					c-4.615,3.936-10.356,6.662-16.379,7.34c-0.09,0.01-0.171-0.054-0.181-0.144C11.281,200.536,11.347,200.455,11.434,200.443z"/>
				<g>
					<path style="fill:#166821;" d="M111.286,109.477c-4.524-1.744-9.141-3.047-13.86-3.859c-4.702-0.845-9.466-1.472-14.267-1.528
						c-4.794-0.045-9.609,0.38-14.291,1.454c-4.673,1.055-9.265,2.762-13.222,5.553l-0.099-0.13
						c3.85-2.987,8.427-4.934,13.123-6.218c4.719-1.251,9.599-1.85,14.482-1.97c4.88-0.122,9.811,0.152,14.599,1.233
						c4.759,1.12,9.472,2.715,13.611,5.319L111.286,109.477z"/>
					<path style="fill:#166821;" d="M87.034,125.446c-4.075-1.046-8.184-1.636-12.31-1.578c-4.11,0.02-8.244,0.371-12.276,1.349
						c-4.022,0.986-7.928,2.501-11.563,4.526c-3.645,2.002-7.035,4.523-9.901,7.584l-0.123-0.108
						c5.455-6.457,13.088-10.929,21.251-13.268c4.082-1.177,8.358-1.918,12.647-1.72c4.266,0.237,8.551,1.121,12.332,3.063
						L87.034,125.446z"/>
					<path style="fill:#166821;" d="M72.366,137.355c-3.952,0.478-7.769,1.363-11.46,2.674c-3.686,1.29-7.344,2.722-10.798,4.597
						c-3.44,1.885-6.711,4.118-9.588,6.795c-2.865,2.655-5.427,5.801-6.68,9.574l-0.158-0.044c1.054-3.882,3.491-7.247,6.266-10.116
						c2.826-2.856,6.07-5.272,9.509-7.346c3.437-2.07,7.072-3.895,10.956-5.022c3.88-1.063,7.95-1.74,11.954-1.275L72.366,137.355z"
						/>
					<path style="fill:#166821;" d="M51.883,161.045c-2.556,1.84-4.775,3.944-6.844,6.226c-2.063,2.278-4.137,4.584-6.112,7.005
						c-1.968,2.423-3.892,4.905-5.961,7.278c-2.092,2.342-4.335,4.618-7,6.309l-0.091-0.136c2.516-1.856,4.556-4.239,6.46-6.695
						c1.921-2.451,3.703-5.018,5.552-7.554c1.841-2.537,3.677-5.134,5.978-7.35c2.289-2.196,4.932-4.168,7.942-5.228L51.883,161.045
						z"/>
					<path style="fill:#166821;" d="M55.677,155.3c0.803,3.361,0.759,6.872,0.322,10.292c-0.466,3.428-1.511,6.762-2.892,9.915
						c-1.38,3.149-2.958,6.222-4.969,9.001c-0.927,1.442-2.082,2.715-3.146,4.047c-1.101,1.302-2.343,2.48-3.503,3.72l-0.117-0.114
						c1.078-1.313,2.231-2.557,3.238-3.915c0.969-1.388,2.023-2.71,2.844-4.188c1.844-2.823,3.24-5.906,4.434-9.029
						c1.185-3.142,1.837-6.432,2.494-9.696c0.641-3.278,1.038-6.608,1.134-10.008L55.677,155.3z"/>
					<path style="fill:#166821;" d="M68.598,140.615c1.898,3.304,3.057,6.958,3.95,10.659c0.832,3.725,1.024,7.582,0.802,11.393
						c-0.277,3.815-1.118,7.588-2.604,11.101c-1.539,3.517-3.974,6.51-6.697,9.102l-0.112-0.12c2.558-2.739,4.759-5.803,6.052-9.297
						c1.292-3.473,1.943-7.147,2.051-10.842c0.039-3.707-0.501-7.373-1.1-11.022c-0.583-3.662-1.477-7.281-2.492-10.908
						L68.598,140.615z"/>
					<path style="fill:#166821;" d="M85.964,127.36c1.878,4.231,3.067,8.716,4.03,13.238c0.904,4.539,1.251,9.185,1.231,13.815
						c0.003,4.627-0.444,9.281-1.61,13.77c-1.169,4.48-3.172,8.77-6.092,12.341l-0.129-0.102c2.729-3.686,4.487-7.989,5.424-12.432
						c0.985-4.439,1.261-9.015,1.095-13.555c-0.157-4.55-0.855-9.053-1.534-13.551c-0.658-4.509-1.596-8.977-2.572-13.47
						L85.964,127.36z"/>
					<path style="fill:#166821;" d="M107.826,112.87c3.814,4.384,6.521,9.648,8.498,15.133c1.924,5.525,2.653,11.443,2.415,17.268
						c-0.237,5.836-1.606,11.596-3.902,16.923c-2.357,5.308-5.557,10.191-9.309,14.565l-0.126-0.104
						c3.575-4.503,6.56-9.469,8.678-14.774c2.109-5.304,3.279-10.967,3.349-16.645c0.052-5.686-1.002-11.309-2.663-16.724
						c-1.648-5.43-4.05-10.65-7.068-15.538L107.826,112.87z"/>
				</g>
			</g>
			<path style="opacity:0.5;fill:#36A342;" d="M114.209,103.839c-9.953-26.435-55.289-13.36-72.027,30.067
				c-13.547,35.146-11.992,64.944-30.729,66.699c0,0,14.975,3.753,33.47-10.987c18.495-14.74,69.401-0.382,92.888-33.727
				C162.271,121.165,131.997,94.312,114.209,103.839z M113.44,159.07c-39.375,17.888-61.109,6.42-84.912,33.148
				c0,0,7.982-46.452,20.073-66.538c14.447-24.001,38.531-36.182,52.295-30.955c13.764,5.226,1.821,20.686-19.125,35.431
				c0,0,18.033-7.744,33.76-21.456C129.761,96.293,164.616,135.819,113.44,159.07z"/>
			<path style="opacity:0.5;fill:#36A342;" d="M93.57,97.376c-6.585-0.684-13.455,2.753-19.033,5.896
				c-5.941,3.349-11.447,7.805-15.834,13.044c-8.706,10.396-13.756,23.566-14.276,37.106c-0.022,0.562,0.899,0.428,0.959-0.048
				c1.619-12.888,7.287-25.109,16.354-34.449c4.313-4.443,9.218-8.195,14.621-11.223c5.521-3.094,11.71-4.509,17.282-7.427
				C94.845,99.644,95.406,97.566,93.57,97.376z"/>
			<path style="opacity:0.5;fill:#36A342;" d="M123.495,109.334c-0.351-1.294-1.982-1.183-2.85-0.605
				c-2.082,1.387-3.31,3.928-4.905,5.807c-1.649,1.942-3.576,3.573-5.669,5.019c-4.869,3.362-10.123,5.856-15.541,8.203
				c-10.351,4.483-19.914,9.96-27.669,18.286c-4.061,4.36-7.398,9.394-10.049,14.721c-0.435,0.874,0.829,1.159,1.244,0.437
				c5.503-9.586,13.446-17.839,22.893-23.593c10.215-6.222,22.845-7.358,32.678-14.231c2.509-1.754,4.873-3.822,6.826-6.186
				C122.149,115.138,124.258,112.143,123.495,109.334z"/>
		</g>
	</g>
	<g>
		<g>
			<g>
				<path style="fill:#009140;" d="M196.68,331.479c0-0.658,0.115-1.134,0.542-2.905c8.464-35.021,16.998-102.274,24.03-189.37
					c0.182-2.256,2.181-3.959,4.413-3.753c2.254,0.182,3.934,2.157,3.754,4.412c-7.066,87.51-15.672,155.212-24.233,190.635
					c-0.166,0.687-0.282,1.153-0.338,1.426c-0.222,2.052-1.96,3.65-4.072,3.65C198.514,335.575,196.68,333.742,196.68,331.479z
					 M204.855,331.856c0.021-0.168,0.018-0.294,0.018-0.377C204.872,331.607,204.866,331.732,204.855,331.856z"/>
				<path style="fill:#00682A;" d="M200.776,336.394c-2.71,0-4.915-2.205-4.915-4.915c0-0.752,0.13-1.291,0.561-3.077
					c8.459-35.001,16.985-102.209,24.014-189.263c0.107-1.322,0.727-2.522,1.747-3.379c1.004-0.843,2.266-1.237,3.558-1.125
					c2.691,0.218,4.711,2.594,4.495,5.294c-7.069,87.55-15.682,155.298-24.254,190.762l-0.078,0.322
					c-0.122,0.501-0.208,0.853-0.254,1.077C205.392,334.511,203.291,336.394,200.776,336.394z M225.301,136.255
					c-0.753,0-1.474,0.264-2.064,0.76c-0.682,0.574-1.097,1.374-1.168,2.256c-7.036,87.137-15.577,154.436-24.051,189.496
					c-0.43,1.781-0.519,2.173-0.519,2.712c0,1.806,1.47,3.277,3.277,3.277c1.677,0,3.078-1.254,3.258-2.918
					c0.003-0.018,0.007-0.035,0.01-0.053l-0.006-0.002c0.009-0.101,0.014-0.202,0.014-0.304h0.056
					c0.054-0.237,0.121-0.512,0.203-0.853l0.078-0.32c8.552-35.384,17.151-103.041,24.213-190.507
					c0.145-1.802-1.202-3.386-3.003-3.531C225.5,136.26,225.401,136.255,225.301,136.255z"/>
			</g>
			<path style="opacity:0.5;fill:#009140;" d="M197.223,328.574c8.464-35.021,16.998-102.274,24.03-189.37
				c0.182-2.256,2.181-3.959,4.413-3.753c0.33,0.027,0.643,0.102,0.944,0.201c-1.031,0.67-1.766,1.786-1.873,3.103
				c-7.032,87.096-15.566,154.349-24.03,189.37c-0.427,1.771-0.542,2.247-0.542,2.905c0,1.821,1.196,3.346,2.839,3.879
				c-0.642,0.418-1.404,0.666-2.227,0.666c-2.262,0-4.096-1.834-4.096-4.096C196.68,330.822,196.796,330.346,197.223,328.574z"/>
		</g>
		<g>
			<g>
				<g>
					<path style="fill:#268B36;" d="M238.063,133.212c9.954-26.435,55.289-13.36,72.027,30.067
						c13.547,35.147,11.992,64.944,30.729,66.699c0,0-14.975,3.753-33.47-10.987s-69.401-0.382-92.888-33.727
						C190.001,150.538,220.275,123.685,238.063,133.212z"/>
					<path style="fill:#166821;" d="M336.049,231.248c-5.987,0-16.785-1.714-29.209-11.618c-7.053-5.621-18.895-6.893-32.607-8.365
						c-21.53-2.314-45.934-4.934-60.44-25.529c-14.018-19.902-10.122-37.04-1.802-46.441c7.168-8.105,17.577-10.986,25.641-7.216
						c3.534-8.438,11.105-13.278,20.912-13.315c0.038-0.002,0.079-0.002,0.118-0.002c17.487,0,40.993,15.165,52.192,44.222
						c4.537,11.77,7.365,22.856,9.859,32.637c4.802,18.824,8.27,32.425,20.183,33.541c0.397,0.037,0.71,0.355,0.74,0.754
						c0.03,0.398-0.23,0.76-0.618,0.858C340.81,230.824,339.022,231.248,336.049,231.248z M230.086,132.079
						c-5.873,0-12.116,2.93-16.869,8.301c-7.905,8.934-11.553,25.291,1.914,44.412c14.08,19.989,38.091,22.568,59.276,24.843
						c13.965,1.501,26.027,2.797,33.452,8.715c11.797,9.402,22.194,11.134,27.965,11.211c-9.165-4-12.421-16.763-16.699-33.536
						c-2.484-9.738-5.298-20.773-9.8-32.453c-10.934-28.365-33.736-43.173-50.663-43.173c-0.038,0-0.074,0-0.113,0.002
						c-9.55,0.037-16.553,4.688-19.721,13.097c-0.083,0.221-0.258,0.395-0.478,0.478c-0.221,0.082-0.467,0.067-0.674-0.045
						C235.338,132.682,232.75,132.079,230.086,132.079z"/>
				</g>
				<path style="fill:#166821;" d="M340.8,230.14c-6.023-0.678-11.764-3.404-16.379-7.34c-4.693-3.873-8.645-8.534-12.285-13.35
					c-3.608-4.851-6.935-9.881-10.261-14.889l-5.002-7.484c-1.695-2.43-3.457-4.813-5.397-7.052
					c-7.697-9.059-17.342-16.105-27.253-22.716c-4.941-3.356-10.075-6.492-14.975-10.091c-2.434-1.817-4.857-3.698-6.987-5.938
					c-1.045-1.137-2.005-2.364-2.8-3.696c-0.771-1.349-1.333-2.818-1.559-4.336c-0.013-0.09,0.049-0.173,0.138-0.186
					c0.081-0.012,0.158,0.043,0.182,0.118c0.453,1.42,1.173,2.704,2.028,3.881c0.897,1.155,1.932,2.192,3.048,3.143
					c2.206,1.933,4.698,3.56,7.227,5.122c5.085,3.099,10.34,6.032,15.476,9.233c10.293,6.341,19.867,14.249,27.493,23.796
					c1.935,2.36,3.685,4.865,5.358,7.411l4.813,7.644c3.187,5.096,6.36,10.186,9.796,15.08c3.424,4.891,7.142,9.607,11.594,13.562
					c4.38,4.016,9.857,6.87,15.782,7.765c0.09,0.011,0.154,0.093,0.143,0.183C340.97,230.085,340.887,230.148,340.8,230.14z"/>
				<g>
					<path style="fill:#166821;" d="M240.912,138.704c4.139-2.604,8.852-4.199,13.611-5.319c4.788-1.082,9.719-1.355,14.598-1.233
						c4.883,0.12,9.762,0.718,14.482,1.97c4.695,1.284,9.273,3.23,13.123,6.217l-0.099,0.131c-3.956-2.791-8.549-4.498-13.222-5.553
						c-4.682-1.073-9.497-1.498-14.291-1.454c-4.801,0.056-9.565,0.683-14.267,1.528c-4.72,0.812-9.336,2.115-13.86,3.859
						L240.912,138.704z"/>
					<path style="fill:#166821;" d="M265.18,154.666c3.782-1.942,8.066-2.826,12.332-3.063c4.289-0.198,8.565,0.543,12.647,1.72
						c8.162,2.34,15.796,6.812,21.251,13.269l-0.123,0.108c-2.866-3.062-6.256-5.582-9.901-7.584
						c-3.635-2.024-7.541-3.54-11.563-4.525c-4.031-0.978-8.165-1.328-12.276-1.349c-4.126-0.058-8.234,0.532-12.31,1.578
						L265.18,154.666z"/>
					<path style="fill:#166821;" d="M279.905,166.564c4.005-0.465,8.074,0.212,11.954,1.275c3.884,1.127,7.519,2.952,10.956,5.022
						c3.439,2.074,6.683,4.49,9.509,7.346c2.775,2.869,5.212,6.234,6.266,10.116l-0.158,0.044c-1.253-3.773-3.815-6.918-6.68-9.574
						c-2.877-2.677-6.148-4.91-9.588-6.795c-3.454-1.875-7.112-3.307-10.798-4.597c-3.692-1.31-7.508-2.196-11.46-2.674
						L279.905,166.564z"/>
					<path style="fill:#166821;" d="M300.464,190.272c3.01,1.06,5.653,3.033,7.942,5.228c2.301,2.216,4.137,4.813,5.977,7.35
						c1.849,2.537,3.632,5.104,5.553,7.555c1.904,2.456,3.944,4.84,6.46,6.695l-0.091,0.136c-2.665-1.69-4.908-3.966-7-6.309
						c-2.069-2.373-3.993-4.855-5.961-7.278c-1.974-2.421-4.049-4.728-6.112-7.005c-2.069-2.283-4.288-4.386-6.844-6.226
						L300.464,190.272z"/>
					<path style="fill:#166821;" d="M296.758,184.696c0.096,3.4,0.493,6.73,1.134,10.008c0.657,3.263,1.309,6.553,2.494,9.696
						c1.194,3.123,2.59,6.207,4.434,9.029c0.821,1.478,1.875,2.8,2.844,4.188c1.007,1.358,2.16,2.602,3.238,3.915l-0.117,0.114
						c-1.16-1.24-2.402-2.418-3.503-3.72c-1.064-1.332-2.219-2.605-3.146-4.047c-2.011-2.778-3.589-5.851-4.969-9
						c-1.381-3.152-2.426-6.487-2.892-9.915c-0.437-3.42-0.481-6.931,0.322-10.292L296.758,184.696z"/>
					<path style="fill:#166821;" d="M283.824,170.055c-1.015,3.627-1.909,7.246-2.492,10.908c-0.599,3.649-1.139,7.315-1.1,11.021
						c0.108,3.695,0.759,7.369,2.051,10.842c1.293,3.494,3.493,6.558,6.052,9.297l-0.111,0.12c-2.723-2.593-5.158-5.586-6.697-9.102
						c-1.487-3.513-2.327-7.286-2.604-11.101c-0.222-3.811-0.031-7.668,0.802-11.394c0.894-3.7,2.052-7.355,3.95-10.659
						L283.824,170.055z"/>
					<path style="fill:#166821;" d="M266.462,156.786c-0.975,4.493-1.913,8.961-2.572,13.47c-0.678,4.497-1.377,9.001-1.534,13.551
						c-0.166,4.54,0.111,9.116,1.095,13.555c0.937,4.443,2.695,8.746,5.424,12.432l-0.129,0.102
						c-2.92-3.571-4.923-7.861-6.092-12.341c-1.165-4.489-1.613-9.143-1.609-13.769c-0.02-4.63,0.327-9.275,1.231-13.815
						c0.963-4.522,2.152-9.007,4.03-13.238L266.462,156.786z"/>
					<path style="fill:#166821;" d="M244.574,142.345c-3.018,4.889-5.42,10.108-7.068,15.538
						c-1.661,5.415-2.715,11.038-2.663,16.724c0.069,5.678,1.24,11.34,3.349,16.645c2.118,5.305,5.103,10.271,8.678,14.774
						l-0.126,0.105c-3.751-4.374-6.952-9.257-9.309-14.565c-2.296-5.327-3.665-11.087-3.902-16.923
						c-0.238-5.825,0.492-11.742,2.415-17.268c1.977-5.484,4.684-10.749,8.498-15.133L244.574,142.345z"/>
				</g>
			</g>
			<path style="opacity:0.5;fill:#36A342;" d="M214.462,185.264c23.487,33.344,74.393,18.987,92.888,33.727
				s33.47,10.987,33.47,10.987c-18.737-1.754-17.182-31.552-30.729-66.699c-16.738-43.427-62.074-56.502-72.027-30.067
				C220.275,123.684,190.001,150.538,214.462,185.264z M236.742,138.073c15.727,13.712,33.76,21.456,33.76,21.456
				c-20.946-14.745-32.889-30.205-19.125-35.431c13.764-5.227,37.848,6.954,52.295,30.955
				c12.091,20.086,20.073,66.538,20.073,66.538c-23.803-26.728-45.538-15.26-84.912-33.148
				C187.656,165.192,222.511,125.665,236.742,138.073z"/>
			<path style="opacity:0.5;fill:#36A342;" d="M258.702,126.748c6.585-0.684,13.456,2.753,19.033,5.896
				c5.941,3.349,11.447,7.805,15.835,13.044c8.706,10.396,13.756,23.566,14.276,37.106c0.022,0.562-0.899,0.428-0.959-0.048
				c-1.619-12.888-7.287-25.109-16.354-34.449c-4.313-4.443-9.218-8.195-14.621-11.223c-5.521-3.094-11.71-4.509-17.282-7.427
				C257.427,129.017,256.866,126.939,258.702,126.748z"/>
			<path style="opacity:0.5;fill:#36A342;" d="M228.777,138.707c0.351-1.294,1.982-1.183,2.85-0.605
				c2.082,1.387,3.31,3.928,4.905,5.807c1.649,1.942,3.576,3.573,5.669,5.019c4.869,3.362,10.123,5.856,15.541,8.203
				c10.351,4.483,19.914,9.96,27.669,18.286c4.061,4.36,7.398,9.394,10.049,14.721c0.435,0.874-0.828,1.159-1.243,0.437
				c-5.503-9.586-13.446-17.839-22.893-23.593c-10.215-6.222-22.845-7.358-32.678-14.231c-2.509-1.754-4.873-3.822-6.826-6.186
				C230.123,144.511,228.014,141.516,228.777,138.707z"/>
		</g>
	</g>
	<g>
		<g>
			<g>
				<path style="fill:#009140;" d="M180.154,315.3c-0.008,0-0.016,0-0.024,0c-2.253-0.014-4.072-1.831-4.072-4.084l0.011-0.571
					c0.467-20.59,1.368-130.299-26.877-268.404c-0.453-2.216,0.976-4.381,3.192-4.834c2.216-0.456,4.381,0.975,4.834,3.192
					c28.421,138.965,27.512,249.487,27.04,270.231l-0.008,0.41C184.222,313.484,182.395,315.3,180.154,315.3z"/>
				<path style="fill:#00682A;" d="M180.154,316.119h-0.024c-2.699-0.018-4.891-2.218-4.891-4.904l0.011-0.587
					c0.467-20.578,1.366-130.209-26.86-268.222c-0.263-1.286-0.01-2.598,0.714-3.694c0.724-1.096,1.83-1.843,3.117-2.107
					c1.282-0.259,2.595-0.011,3.691,0.712c1.097,0.723,1.846,1.832,2.109,3.12c28.444,139.076,27.529,249.657,27.057,270.412
					l-0.008,0.408C185.036,313.935,182.831,316.119,180.154,316.119z M153.215,38.142c-0.221,0-0.444,0.022-0.666,0.067
					c-0.858,0.176-1.596,0.675-2.077,1.405c-0.482,0.731-0.652,1.606-0.477,2.464c28.261,138.186,27.361,247.979,26.893,268.585
					l-0.011,0.568c0,1.773,1.461,3.238,3.258,3.249l0.018,0.819v-0.819c1.785,0,3.255-1.457,3.277-3.249l0.008-0.418
					c0.472-20.726,1.385-131.145-27.023-270.049c-0.175-0.859-0.675-1.598-1.406-2.08C154.468,38.326,153.848,38.142,153.215,38.142
					z"/>
			</g>
			<path style="opacity:0.5;fill:#009140;" d="M157.218,40.599c-0.453-2.217-2.618-3.648-4.834-3.192
				c-0.15,0.031-0.286,0.088-0.428,0.133c0.885,0.577,1.549,1.493,1.777,2.61c28.421,138.965,27.512,249.487,27.04,270.231
				l-0.008,0.41c-0.022,1.804-1.215,3.313-2.843,3.842c0.636,0.413,1.392,0.661,2.208,0.666c0.008,0,0.016,0,0.024,0
				c2.242,0,4.069-1.815,4.096-4.059l0.008-0.41C184.73,290.086,185.638,179.565,157.218,40.599z"/>
		</g>
		<g>
			<g>
				<g>
					<path style="fill:#36A342;" d="M169.525,28.623c0.336-26.264,64.508-19.665,77.273,41.602
						c12.764,61.267-6.001,91.052-12.081,76.894s-9.18-26.407-43.38-31.977s-54.963-35.397-55.25-57.262
						C135.839,39.093,148.779,21.164,169.525,28.623z"/>
					<path style="fill:#217A29;" d="M238.585,151.404c-1.342,0-3.218-0.694-4.622-3.962c-0.368-0.858-0.725-1.707-1.078-2.549
						c-5.362-12.76-9.993-23.781-41.681-28.944c-33.074-5.387-55.626-34.369-55.938-58.059
						c-0.153-11.633,4.546-22.277,12.261-27.779c6-4.278,13.321-5.179,21.232-2.616c0.65-7.784,7.061-13.147,17.009-14.109
						c20.385-1.962,53.007,14.315,61.831,56.672c10.244,49.168,0.517,78.534-7.806,81.158
						C239.495,151.311,239.076,151.404,238.585,151.404z M160.236,27.715c-4.302,0-8.277,1.25-11.758,3.731
						c-7.285,5.194-11.72,15.318-11.574,26.422c0.263,19.989,19.371,50.732,54.563,56.465c32.583,5.307,37.377,16.715,42.928,29.925
						c0.352,0.838,0.707,1.685,1.074,2.538c0.702,1.634,1.942,3.456,3.831,2.859c6.198-1.955,17.291-28.403,6.696-79.263
						c-8.618-41.363-40.293-57.276-60.071-55.374c-9.659,0.934-15.485,6.024-15.581,13.616l-0.014,1.149l-1.082-0.389
						C166.132,28.274,163.111,27.715,160.236,27.715z"/>
				</g>
				<g>
					<path style="fill:#36A342;" d="M169.525,28.623c0.336-26.264,64.508-19.665,77.273,41.602
						c12.764,61.267-6.001,91.052-12.081,76.894s-9.18-26.407-43.38-31.977s-54.963-35.397-55.25-57.262
						C135.839,39.093,148.779,21.164,169.525,28.623z"/>
					<path style="fill:#217A29;" d="M238.585,151.404c-1.342,0-3.218-0.694-4.622-3.962c-0.368-0.858-0.725-1.707-1.078-2.549
						c-5.362-12.76-9.993-23.781-41.681-28.944c-33.074-5.387-55.626-34.369-55.938-58.059
						c-0.153-11.633,4.546-22.277,12.261-27.779c6-4.278,13.321-5.179,21.232-2.616c0.65-7.784,7.061-13.147,17.009-14.109
						c20.385-1.962,53.007,14.315,61.831,56.672c10.244,49.168,0.517,78.534-7.806,81.158
						C239.495,151.311,239.076,151.404,238.585,151.404z M160.236,27.715c-4.302,0-8.277,1.25-11.758,3.731
						c-7.285,5.194-11.72,15.318-11.574,26.422c0.263,19.989,19.371,50.732,54.563,56.465c32.583,5.307,37.377,16.715,42.928,29.925
						c0.352,0.838,0.707,1.685,1.074,2.538c0.702,1.634,1.942,3.456,3.831,2.859c6.198-1.955,17.291-28.403,6.696-79.263
						c-8.618-41.363-40.293-57.276-60.071-55.374c-9.659,0.934-15.485,6.024-15.581,13.616l-0.014,1.149l-1.082-0.389
						C166.132,28.274,163.111,27.715,160.236,27.715z"/>
				</g>
				<g>
					<path style="fill:#217A29;" d="M153.143,27.929c1.638-0.531,3.252-1.327,5.01-1.501c0.867-0.121,1.734-0.375,2.615-0.386
						l2.655-0.068c3.523,0.2,7.068,0.891,10.352,2.211c6.646,2.516,12.507,6.625,17.837,11.145l3.853,3.567l3.676,3.734l3.463,3.92
						c1.13,1.326,2.205,2.695,3.309,4.04c4.298,5.475,8.229,11.197,11.869,17.122c0.967,1.443,1.814,2.961,2.648,4.485l2.534,4.55
						c1.61,3.074,3.081,6.222,4.564,9.355l2.005,4.802l1.001,2.4l0.875,2.45l1.747,4.897l1.502,4.976
						c3.77,13.309,5.995,27.151,5.318,40.977l-0.328-0.025c0.236-13.753-2.418-27.443-6.564-40.474l-1.601-4.882l-1.841-4.796
						l-0.92-2.397l-1.046-2.345l-2.089-4.688c-1.537-3.056-3.059-6.122-4.717-9.11l-2.602-4.419
						c-0.855-1.479-1.723-2.951-2.71-4.349c-3.748-5.709-7.8-11.239-12.174-16.478c-1.105-1.298-2.182-2.621-3.31-3.898l-3.43-3.781
						l-3.529-3.675l-3.688-3.5c-4.938-4.628-10.439-8.676-16.527-11.483c-3.014-1.493-6.273-2.368-9.586-2.832
						c-3.342-0.489-6.72-0.046-10.056,0.766L153.143,27.929z"/>
				</g>
				<g>
					<g>
						<path style="fill:#217A29;" d="M242.418,55.799c-3.855-3.604-8.088-6.796-12.507-9.653c-4.416-2.862-9.078-5.343-13.951-7.258
							c-4.885-1.897-9.99-3.091-15.144-3.649c-2.58-0.309-5.182-0.298-7.783-0.16c-2.605,0.167-5.181,0.641-7.769,1.21l-0.053-0.156
							c2.453-1.02,5.038-1.779,7.694-2.194c2.656-0.389,5.36-0.486,8.051-0.339c2.685,0.216,5.348,0.671,7.94,1.376
							c2.582,0.737,5.105,1.644,7.561,2.693c4.91,2.107,9.548,4.768,13.913,7.793c4.337,3.066,8.447,6.443,12.166,10.22
							L242.418,55.799z"/>
					</g>
					<g>
						<path style="fill:#217A29;" d="M251.069,95.183c-2.471-4.156-5.362-8.054-8.464-11.744c-3.096-3.698-6.476-7.148-10.11-10.287
							c-3.652-3.134-7.692-5.719-11.79-8.148c-4.123-2.446-8.592-4.123-13.199-5.677l0.032-0.161
							c4.827,0.634,9.576,2.145,13.951,4.393c4.339,2.314,8.29,5.292,11.875,8.607c3.587,3.318,6.884,6.924,9.879,10.757
							c2.958,3.861,5.678,7.901,7.969,12.183L251.069,95.183z"/>
					</g>
					<g>
						<path style="fill:#217A29;" d="M185.221,112.251c-2.979-6.08-5.378-12.434-7.356-18.918
							c-1.911-6.502-3.396-13.157-4.091-19.933c-0.732-6.755-0.777-13.681,0.628-20.411c0.768-3.341,1.772-6.635,3.178-9.759
							c1.46-3.1,3.256-6.026,5.4-8.658l0.133,0.097c-1.753,2.895-3.27,5.888-4.475,9.003c-1.149,3.138-2.041,6.355-2.623,9.635
							c-1.152,6.556-1.477,13.28-0.932,19.971c0.522,6.693,1.831,13.325,3.572,19.83c1.755,6.502,3.941,12.915,6.713,19.07
							L185.221,112.251z"/>
					</g>
					<g>
						<path style="fill:#217A29;" d="M248.452,134.275c-0.233-3.381-0.588-6.76-1.607-9.979c-0.377-1.641-1.058-3.187-1.621-4.764
							c-0.721-1.515-1.364-3.064-2.244-4.493c-1.659-2.91-3.695-5.566-5.806-8.147c-2.107-2.595-4.414-5.032-6.895-7.364
							l0.091-0.137c1.533,0.792,2.939,1.797,4.278,2.88c0.686,0.526,1.299,1.131,1.952,1.697l1.816,1.847
							c2.358,2.537,4.179,5.528,5.722,8.602c0.831,1.512,1.42,3.141,2.08,4.725c0.502,1.647,1.117,3.256,1.422,4.951
							c0.823,3.34,0.96,6.786,0.975,10.181H248.452z"/>
					</g>
					<g>
						<path style="fill:#217A29;" d="M213.848,121.532c-3.357-4.511-5.793-9.659-7.658-14.96
							c-1.836-5.322-3.127-10.825-3.971-16.395c-0.839-5.566-1.339-11.23-0.924-16.885c0.492-5.592,1.48-11.395,4.48-16.239
							l0.144,0.08c-2.106,5.183-2.781,10.729-2.982,16.251c-0.192,5.527-0.068,11.092,0.586,16.616
							c0.671,5.518,1.786,10.996,3.447,16.313c1.64,5.315,3.849,10.505,7.012,15.123L213.848,121.532z"/>
					</g>
					<g>
						<path style="fill:#217A29;" d="M160.164,101.453c-3.101-6.052-5.229-12.587-6.599-19.26c-1.326-6.685-1.903-13.54-1.536-20.38
							c0.376-6.81,1.608-13.748,4.77-19.952c1.605-3.065,3.603-5.959,6.105-8.359c2.491-2.402,5.439-4.322,8.642-5.507l0.068,0.15
							c-6.009,3.193-10.571,8.416-13.34,14.444c-2.829,6.007-4.384,12.62-4.932,19.314c-0.524,6.703-0.122,13.488,1.031,20.139
							c1.143,6.651,3.043,13.208,5.938,19.339L160.164,101.453z"/>
					</g>
				</g>
			</g>
			<path style="opacity:0.5;fill:#36A342;" d="M136.086,57.88c0.287,21.865,21.05,51.691,55.25,57.262
				c34.201,5.571,37.3,17.819,43.38,31.977c6.081,14.159,24.846-15.627,12.081-76.894c-12.764-61.267-76.936-67.866-77.272-41.602
				C148.779,21.164,135.839,39.092,136.086,57.88z M171.739,35.747c31.399,8.451,61.704,76.777,62.685,78.79
				c0,0-4.165-43.196-37.839-74.626c-20.715-19.335-4.265-22.927,6.874-19.06c11.139,3.867,41.3,17.356,45.125,70.459
				c2.677,37.164-9.064,52.292-9.064,52.292c-5.514-26.963-28.202-26.584-60.194-48.14C147.333,73.904,140.34,27.296,171.739,35.747
				z"/>
			<path style="opacity:0.5;fill:#36A342;" d="M201.905,24.524c3.286,0.106,6.027,1.701,8.809,3.313
				c2.658,1.541,5.209,3.267,7.628,5.16c4.773,3.735,8.997,8.312,12.528,13.228c7.513,10.459,12.078,22.836,12.957,35.698
				c0.522,7.633-0.429,15.262-2.467,22.625c-0.153,0.552-1.002,0.129-0.891-0.375c2.796-12.705,1.669-26.476-3.098-38.583
				c-4.238-10.763-11.523-20.04-20.715-27.02c-2.452-1.861-4.954-3.641-7.614-5.195c-2.852-1.666-5.963-2.84-8.388-5.138
				C199.428,27.076,199.984,24.462,201.905,24.524z"/>
			<path style="opacity:0.5;fill:#36A342;" d="M165.378,39.262c21.643,8.45,39.714,25.289,49.582,46.346
				c2.764,5.898,4.79,12.072,6.113,18.448c0.137,0.659-0.904,0.634-1.059,0.086c-5.983-21.208-19.853-40.062-38.592-51.732
				c-5.288-3.293-10.908-6.001-16.792-8.048c-1.365-0.475-2.535-1.832-2.305-3.353C162.533,39.638,164.065,38.75,165.378,39.262z"/>
		</g>
	</g>
	<g>
		<g>
			<g>
				<path style="fill:#8AC843;" d="M112.627,313.124c-0.01,0-0.019,0-0.029,0c-2.251-0.016-4.067-1.829-4.067-4.08
					c0-0.088,0.006-0.35,0.019-0.773c0.462-15.442,0.834-67.795-13.819-93.155c-1.131-1.958-0.461-4.464,1.498-5.595
					c1.96-1.131,4.462-0.462,5.597,1.498c15.733,27.23,15.392,81.51,14.913,97.498l-0.016,0.553
					C116.691,311.31,114.865,313.124,112.627,313.124z"/>
				<path style="fill:#669629;" d="M112.626,313.943h-0.029c-2.697-0.019-4.886-2.217-4.886-4.899c0-0.091,0.006-0.362,0.019-0.798
					c0.461-15.387,0.834-67.548-13.71-92.721c-1.355-2.347-0.549-5.358,1.798-6.714c2.345-1.36,5.358-0.549,6.715,1.795
					c15.839,27.414,15.504,81.891,15.024,97.934l-0.016,0.552C117.503,311.761,115.298,313.943,112.626,313.943z M98.27,209.792
					c-0.555,0-1.118,0.141-1.632,0.437c-1.564,0.904-2.102,2.912-1.198,4.477c14.759,25.545,14.393,78.094,13.929,93.59
					c-0.013,0.41-0.019,0.664-0.019,0.749c0,1.786,1.46,3.248,3.254,3.261l0.023,0.819v-0.819c1.781,0,3.251-1.458,3.277-3.248
					l0.016-0.565c0.477-15.934,0.818-70.025-14.804-97.065C100.508,210.379,99.403,209.792,98.27,209.792z"/>
			</g>
			<path style="opacity:0.5;fill:#8AC843;" d="M101.825,211.018c-0.992-1.714-3.032-2.441-4.84-1.839
				c0.538,0.342,1.013,0.799,1.355,1.39c15.733,27.23,15.392,81.511,14.914,97.498l-0.016,0.553
				c-0.026,1.802-1.218,3.31-2.845,3.839c0.635,0.412,1.389,0.66,2.204,0.665c0.01,0,0.019,0,0.029,0
				c2.238,0,4.064-1.814,4.096-4.055l0.016-0.553C117.217,292.529,117.558,238.248,101.825,211.018z"/>
		</g>
		<g>
			<g>
				<g>
					<path style="fill:#8AC843;" d="M91.827,200.541c-0.355-26.167-64.285-19.544-76.956,41.507
						c-12.671,61.051,6.047,90.712,12.095,76.601c6.047-14.111,9.126-26.316,43.196-31.892c34.07-5.576,54.733-35.308,55.003-57.092
						C125.398,210.947,112.492,193.095,91.827,200.541z"/>
					<path style="fill:#669629;" d="M23.113,322.926c-0.489,0-0.906-0.093-1.202-0.186c-8.295-2.61-18.01-31.862-7.842-80.859
						c8.761-42.209,41.28-58.46,61.564-56.51c9.913,0.95,16.304,6.288,16.96,14.041c7.877-2.552,15.174-1.666,21.155,2.594
						c7.692,5.475,12.382,16.078,12.237,27.669c-0.292,23.605-22.739,52.499-55.69,57.891c-31.565,5.166-36.17,16.149-41.502,28.865
						c-0.352,0.838-0.707,1.686-1.074,2.541C26.322,322.231,24.45,322.926,23.113,322.926z M72.283,186.853
						c-19.74,0-48.505,16.309-56.609,55.361c-10.518,50.678,0.552,77.02,6.728,78.963c1.886,0.594,3.114-1.224,3.812-2.851
						c0.364-0.85,0.718-1.693,1.068-2.528c5.521-13.166,10.289-24.536,42.749-29.848c35.056-5.738,54.069-36.381,54.316-56.294
						c0.137-11.062-4.289-21.145-11.549-26.315c-5.787-4.12-12.943-4.822-20.692-2.029l-1.081,0.389l-0.016-1.149
						c-0.102-7.561-5.909-12.627-15.532-13.55C74.443,186.903,73.376,186.853,72.283,186.853z"/>
				</g>
				<g>
					<path style="fill:#8AC843;" d="M91.827,200.541c-0.355-26.167-64.285-19.544-76.956,41.507
						c-12.671,61.051,6.047,90.712,12.095,76.601c6.047-14.111,9.126-26.316,43.196-31.892c34.07-5.576,54.733-35.308,55.003-57.092
						C125.398,210.947,112.492,193.095,91.827,200.541z"/>
					<path style="fill:#669629;" d="M23.113,322.926c-0.489,0-0.906-0.093-1.202-0.186c-8.295-2.61-18.01-31.862-7.842-80.859
						c8.761-42.209,41.28-58.46,61.564-56.51c9.913,0.95,16.304,6.288,16.96,14.041c7.877-2.552,15.174-1.666,21.155,2.594
						c7.692,5.475,12.382,16.078,12.237,27.669c-0.292,23.605-22.739,52.499-55.69,57.891c-31.565,5.166-36.17,16.149-41.502,28.865
						c-0.352,0.838-0.707,1.686-1.074,2.541C26.322,322.231,24.45,322.926,23.113,322.926z M72.283,186.853
						c-19.74,0-48.505,16.309-56.609,55.361c-10.518,50.678,0.552,77.02,6.728,78.963c1.886,0.594,3.114-1.224,3.812-2.851
						c0.364-0.85,0.718-1.693,1.068-2.528c5.521-13.166,10.289-24.536,42.749-29.848c35.056-5.738,54.069-36.381,54.316-56.294
						c0.137-11.062-4.289-21.145-11.549-26.315c-5.787-4.12-12.943-4.822-20.692-2.029l-1.081,0.389l-0.016-1.149
						c-0.102-7.561-5.909-12.627-15.532-13.55C74.443,186.903,73.376,186.853,72.283,186.853z"/>
				</g>
				<g>
					<path style="fill:#669629;" d="M108.148,199.838c-1.633-0.527-3.241-1.319-4.993-1.491c-0.864-0.12-1.728-0.372-2.606-0.383
						l-2.645-0.065c-3.51,0.202-7.041,0.893-10.312,2.21c-6.62,2.512-12.456,6.61-17.763,11.117l-3.836,3.557l-3.66,3.723
						l-3.447,3.909c-1.125,1.322-2.195,2.687-3.294,4.028c-4.278,5.458-8.19,11.161-11.812,17.068
						c-0.963,1.439-1.805,2.951-2.635,4.47l-2.521,4.535c-1.602,3.063-3.065,6.201-4.54,9.324l-1.994,4.786l-0.996,2.392
						l-0.869,2.441l-1.737,4.88l-1.492,4.959c-3.746,13.263-5.953,27.055-5.267,40.83l0.327-0.025
						c-0.245-13.702,2.388-27.343,6.509-40.33l1.592-4.866l1.831-4.78l0.915-2.389l1.04-2.337l2.078-4.673
						c1.529-3.046,3.043-6.102,4.692-9.08l2.589-4.405c0.851-1.475,1.714-2.941,2.696-4.335c3.73-5.691,7.762-11.204,12.117-16.426
						c1.1-1.294,2.172-2.614,3.295-3.886l3.415-3.77l3.514-3.664l3.672-3.49c4.916-4.615,10.394-8.652,16.457-11.453
						c3.002-1.489,6.248-2.364,9.549-2.829c3.329-0.49,6.695-0.05,10.02,0.755L108.148,199.838z"/>
				</g>
				<g>
					<g>
						<path style="fill:#669629;" d="M19.224,227.673c3.839-3.594,8.053-6.778,12.454-9.627c4.398-2.855,9.04-5.33,13.895-7.241
							c4.866-1.893,9.951-3.087,15.085-3.647c2.57-0.31,5.162-0.301,7.754-0.166c2.595,0.165,5.162,0.635,7.742,1.2l0.052-0.155
							c-2.445-1.015-5.02-1.768-7.667-2.18c-2.647-0.385-5.341-0.48-8.021-0.332c-2.675,0.218-5.327,0.673-7.91,1.377
							c-2.572,0.737-5.085,1.642-7.531,2.689c-4.89,2.103-9.509,4.758-13.855,7.775c-4.318,3.057-8.411,6.426-12.113,10.191
							L19.224,227.673z"/>
					</g>
					<g>
						<path style="fill:#669629;" d="M10.635,266.917c2.459-4.142,5.336-8.029,8.424-11.707c3.082-3.687,6.447-7.127,10.064-10.257
							c3.636-3.125,7.659-5.704,11.74-8.127c4.106-2.44,8.557-4.114,13.146-5.666L53.976,231c-4.808,0.635-9.539,2.144-13.896,4.387
							c-4.321,2.309-8.255,5.279-11.825,8.584c-3.571,3.308-6.853,6.903-9.834,10.725c-2.944,3.849-5.651,7.876-7.93,12.144
							L10.635,266.917z"/>
					</g>
					<g>
						<path style="fill:#669629;" d="M76.253,283.873c2.963-6.06,5.348-12.392,7.315-18.854c1.899-6.479,3.373-13.111,4.061-19.863
							c0.724-6.73,0.764-13.631-0.641-20.335c-0.768-3.329-1.77-6.609-3.174-9.721c-1.457-3.088-3.248-6.001-5.387-8.622
							l-0.132,0.096c1.749,2.883,3.262,5.863,4.466,8.967c1.147,3.125,2.038,6.33,2.62,9.597c1.153,6.531,1.482,13.23,0.943,19.897
							c-0.515,6.669-1.814,13.278-3.544,19.76c-1.744,6.48-3.917,12.87-6.674,19.005L76.253,283.873z"/>
					</g>
					<g>
						<path style="fill:#669629;" d="M13.272,305.864c0.23-3.369,0.581-6.736,1.594-9.943c0.374-1.635,1.052-3.177,1.611-4.747
							c0.718-1.51,1.357-3.054,2.232-4.478c1.65-2.9,3.677-5.548,5.778-8.122c2.097-2.587,4.394-5.017,6.864-7.342l-0.091-0.137
							c-1.527,0.791-2.927,1.792-4.26,2.873c-0.682,0.524-1.293,1.127-1.944,1.692l-1.808,1.841
							c-2.347,2.529-4.159,5.51-5.695,8.575c-0.827,1.507-1.412,3.13-2.069,4.709c-0.499,1.642-1.11,3.245-1.413,4.934
							c-0.818,3.328-0.952,6.762-0.963,10.144L13.272,305.864z"/>
					</g>
					<g>
						<path style="fill:#669629;" d="M47.739,293.141c3.341-4.497,5.764-9.627,7.619-14.91c1.826-5.303,3.107-10.787,3.944-16.338
							c0.832-5.546,1.325-11.19,0.908-16.824c-0.495-5.572-1.483-11.352-4.476-16.176l-0.143,0.08
							c2.103,5.162,2.779,10.687,2.983,16.189c0.196,5.506,0.076,11.051-0.571,16.555c-0.664,5.498-1.771,10.956-3.422,16.255
							c-1.63,5.297-3.826,10.469-6.974,15.073L47.739,293.141z"/>
					</g>
					<g>
						<path style="fill:#669629;" d="M101.209,273.096c3.085-6.032,5.2-12.544,6.56-19.194c1.316-6.662,1.886-13.491,1.515-20.306
							c-0.38-6.784-1.613-13.697-4.767-19.875c-1.601-3.053-3.594-5.934-6.089-8.324c-2.484-2.391-5.423-4.301-8.615-5.48
							l-0.067,0.149c5.989,3.177,10.538,8.376,13.301,14.38c2.823,5.983,4.377,12.571,4.928,19.239
							c0.527,6.678,0.132,13.439-1.012,20.066c-1.134,6.628-3.022,13.162-5.902,19.272L101.209,273.096z"/>
					</g>
				</g>
			</g>
			<path style="opacity:0.5;fill:#8AC843;" d="M91.827,200.542c-0.355-26.167-64.285-19.544-76.956,41.507
				c-12.671,61.051,6.047,90.712,12.095,76.601c6.048-14.111,9.126-26.316,43.196-31.892c34.07-5.576,54.733-35.308,55.003-57.092
				C125.398,210.947,112.492,193.094,91.827,200.542z M82.114,267.14c-31.858,21.501-54.463,21.141-59.936,48.008
				c0,0-11.71-15.063-9.071-52.092c3.771-52.91,33.811-66.372,44.906-70.233c11.095-3.861,27.487-0.295,6.863,18.984
				c-33.526,31.34-37.643,74.38-37.643,74.38c0.975-2.006,31.117-70.103,62.394-78.547
				C120.904,199.197,113.972,245.639,82.114,267.14z"/>
			<path style="opacity:0.5;fill:#8AC843;" d="M59.564,196.482c-3.273,0.108-6.003,1.699-8.774,3.308
				c-2.647,1.537-5.187,3.259-7.596,5.147c-4.753,3.725-8.957,8.288-12.472,13.189c-7.477,10.426-12.016,22.761-12.882,35.576
				c-0.514,7.605,0.439,15.206,2.475,22.54c0.153,0.55,0.998,0.127,0.888-0.374c-2.796-12.656-1.683-26.377,3.057-38.443
				c4.214-10.726,11.465-19.975,20.618-26.936c2.441-1.856,4.932-3.631,7.582-5.182c2.84-1.662,5.939-2.834,8.353-5.125
				C62.034,199.023,61.478,196.419,59.564,196.482z"/>
			<path style="opacity:0.5;fill:#8AC843;" d="M95.967,211.139c-21.557,8.435-39.548,25.226-49.364,46.213
				c-2.75,5.878-4.764,12.031-6.077,18.384c-0.136,0.657,0.902,0.631,1.055,0.085c5.945-21.135,19.749-39.929,38.41-51.57
				c5.266-3.285,10.863-5.987,16.724-8.031c1.36-0.474,2.524-1.827,2.294-3.343C98.802,211.51,97.275,210.627,95.967,211.139z"/>
		</g>
	</g>
	<g>
		<g>
			<g>
				<path style="fill:#009140;" d="M162.644,306.421c-2.178,0-3.99-1.715-4.088-3.912c-0.029-0.633-2.814-63.637-0.704-97.48
					c0.141-2.257,2.069-3.972,4.342-3.833c2.258,0.141,3.974,2.086,3.834,4.343c-2.083,33.409,0.683,95.974,0.71,96.602
					c0.102,2.26-1.648,4.174-3.907,4.276C162.769,306.419,162.706,306.421,162.644,306.421z"/>
				<path style="fill:#00682A;" d="M162.644,307.241c-2.634,0-4.79-2.062-4.906-4.694c-0.029-0.629-2.803-63.897-0.703-97.569
					c0.169-2.701,2.494-4.768,5.21-4.598c2.706,0.168,4.77,2.506,4.601,5.211c-2.038,32.692,0.597,93.895,0.71,96.484
					c0.061,1.341-0.394,2.597-1.28,3.566c-0.886,0.97-2.096,1.536-3.407,1.594L162.644,307.241z M161.941,202.008
					c-1.715,0-3.163,1.339-3.271,3.072c-2.094,33.585,0.676,96.764,0.705,97.393c0.078,1.755,1.514,3.13,3.27,3.13l0.146-0.003
					c0.879-0.04,1.686-0.418,2.276-1.064c0.59-0.645,0.894-1.483,0.854-2.357c-0.114-2.625-2.754-63.911-0.71-96.69
					c0.113-1.803-1.263-3.362-3.067-3.474C162.076,202.01,162.008,202.008,161.941,202.008z"/>
			</g>
			<path style="opacity:0.5;fill:#009140;" d="M166.028,205.54c0.141-2.258-1.576-4.202-3.834-4.343
				c-0.541-0.033-1.06,0.045-1.542,0.204c1.211,0.776,1.987,2.153,1.891,3.69c-2.083,33.409,0.683,95.974,0.71,96.602
				c0.085,1.885-1.126,3.514-2.839,4.067c0.644,0.419,1.41,0.662,2.229,0.662c0.062,0,0.125-0.002,0.187-0.004
				c2.259-0.102,4.01-2.016,3.907-4.276C166.711,301.513,163.945,238.949,166.028,205.54z"/>
		</g>
		<g>
			<g>
				<g>
					<path style="fill:#36A342;" d="M155.223,146.973c6.078-25.553,67.249-5.064,66.289,57.511
						c-0.959,62.575-25.791,87.529-28.624,72.383c-2.833-15.146-3.175-27.776-35.327-40.699
						c-32.151-12.923-45.879-46.572-41.373-67.969C120.061,149.813,136.613,135.153,155.223,146.973z"/>
					<path style="fill:#217A29;" d="M196.602,281.992c-1.299,0-3.705-0.619-4.52-4.974c-0.171-0.917-0.334-1.824-0.494-2.725
						c-2.438-13.624-4.544-25.392-34.333-37.365c-31.093-12.497-46.752-45.715-41.868-68.899
						c2.398-11.384,9.312-20.741,18.046-24.419c6.793-2.859,14.132-2.133,21.289,2.096c2.339-7.451,9.773-11.29,19.686-10.042
						c20.298,2.538,48.586,25.573,47.923,68.831c-0.77,50.219-16.691,76.743-25.386,77.481
						C196.842,281.987,196.727,281.992,196.602,281.992z M141.801,143.538c-2.634,0-5.226,0.526-7.732,1.581
						c-8.246,3.474-14.79,12.382-17.078,23.249c-4.121,19.561,7.792,53.74,40.877,67.04c30.63,12.312,32.81,24.493,35.334,38.596
						c0.16,0.896,0.322,1.798,0.493,2.712c0.326,1.747,1.11,3.805,3.112,3.629c6.476-0.55,23.09-23.928,23.887-75.875
						c0.648-42.246-26.794-64.718-46.488-67.18c-9.622-1.197-16.429,2.486-18.185,9.872l-0.266,1.118l-0.97-0.616
						C150.465,144.922,146.077,143.538,141.801,143.538z"/>
				</g>
				<g>
					<path style="fill:#36A342;" d="M155.223,146.973c6.078-25.553,67.249-5.064,66.289,57.511
						c-0.959,62.575-25.791,87.529-28.624,72.383c-2.833-15.146-3.175-27.776-35.327-40.699
						c-32.151-12.923-45.879-46.572-41.373-67.969C120.061,149.813,136.613,135.153,155.223,146.973z"/>
					<path style="fill:#217A29;" d="M196.602,281.992c-1.299,0-3.705-0.619-4.52-4.974c-0.171-0.917-0.334-1.824-0.494-2.725
						c-2.438-13.624-4.544-25.392-34.333-37.365c-31.093-12.497-46.752-45.715-41.868-68.899
						c2.398-11.384,9.312-20.741,18.046-24.419c6.793-2.859,14.132-2.133,21.289,2.096c2.339-7.451,9.773-11.29,19.686-10.042
						c20.298,2.538,48.586,25.573,47.923,68.831c-0.77,50.219-16.691,76.743-25.386,77.481
						C196.842,281.987,196.727,281.992,196.602,281.992z M141.801,143.538c-2.634,0-5.226,0.526-7.732,1.581
						c-8.246,3.474-14.79,12.382-17.078,23.249c-4.121,19.561,7.792,53.74,40.877,67.04c30.63,12.312,32.81,24.493,35.334,38.596
						c0.16,0.896,0.322,1.798,0.493,2.712c0.326,1.747,1.11,3.805,3.112,3.629c6.476-0.55,23.09-23.928,23.887-75.875
						c0.648-42.246-26.794-64.718-46.488-67.18c-9.622-1.197-16.429,2.486-18.185,9.872l-0.266,1.118l-0.97-0.616
						C150.465,144.922,146.077,143.538,141.801,143.538z"/>
				</g>
				<g>
					<path style="fill:#217A29;" d="M139.39,142.709c1.715-0.159,3.464-0.582,5.217-0.367c0.873,0.072,1.774,0.014,2.636,0.196
						l2.605,0.515c3.394,0.966,6.702,2.417,9.617,4.423c5.934,3.91,10.753,9.203,14.964,14.78l2.979,4.324l2.77,4.449l2.521,4.583
						c0.812,1.541,1.561,3.112,2.344,4.666c2.995,6.284,5.578,12.727,7.832,19.306c0.628,1.62,1.122,3.286,1.602,4.955l1.476,4.994
						c0.898,3.352,1.644,6.746,2.404,10.128l0.905,5.124l0.452,2.561l0.317,2.582l0.632,5.16l0.376,5.184
						c0.764,13.812-0.095,27.805-3.783,41.147l-0.314-0.096c3.241-13.368,3.649-27.306,2.457-40.929l-0.493-5.114l-0.747-5.083
						l-0.373-2.54l-0.507-2.517l-1.012-5.032c-0.83-3.318-1.644-6.643-2.607-9.922l-1.571-4.882
						c-0.511-1.631-1.035-3.257-1.692-4.837c-2.408-6.391-5.15-12.674-8.271-18.744c-0.794-1.508-1.555-3.036-2.376-4.528
						l-2.519-4.44l-2.639-4.359l-2.832-4.223c-3.805-5.597-8.287-10.751-13.612-14.823c-2.614-2.116-5.602-3.684-8.733-4.862
						c-3.154-1.209-6.547-1.516-9.98-1.455L139.39,142.709z"/>
				</g>
				<g>
					<g>
						<path style="fill:#217A29;" d="M220.397,189.449c-2.973-4.361-6.404-8.402-10.09-12.157
							c-3.682-3.759-7.688-7.201-12.024-10.136c-4.351-2.92-9.071-5.203-13.977-6.876c-2.45-0.867-4.991-1.426-7.559-1.861
							c-2.578-0.407-5.195-0.509-7.846-0.52l-0.017-0.164c2.617-0.458,5.305-0.633,7.988-0.456c2.677,0.202,5.337,0.699,7.93,1.432
							c2.573,0.799,5.071,1.826,7.446,3.081c2.358,1.285,4.621,2.722,6.788,4.283c4.329,3.131,8.273,6.743,11.869,10.65
							c3.56,3.941,6.832,8.136,9.633,12.636L220.397,189.449z"/>
					</g>
					<g>
						<path style="fill:#217A29;" d="M220.215,229.771c-1.501-4.596-3.469-9.033-5.687-13.312
							c-2.212-4.286-4.754-8.393-7.612-12.251c-2.877-3.858-6.253-7.265-9.72-10.532c-3.487-3.289-7.481-5.904-11.635-8.429
							l0.067-0.15c4.571,1.676,8.874,4.189,12.651,7.341c3.727,3.208,6.93,6.979,9.703,10.998c2.774,4.023,5.201,8.263,7.284,12.659
							c2.041,4.415,3.811,8.953,5.108,13.632L220.215,229.771z"/>
					</g>
					<g>
						<path style="fill:#217A29;" d="M152.228,232.008c-1.575-6.585-2.525-13.31-3.036-20.07
							c-0.441-6.762-0.433-13.582,0.373-20.345c0.764-6.751,2.237-13.519,5.081-19.778c1.481-3.092,3.181-6.086,5.238-8.827
							c2.103-2.705,4.496-5.167,7.165-7.266l0.109,0.123c-2.344,2.441-4.48,5.029-6.338,7.805c-1.808,2.81-3.382,5.754-4.668,8.827
							c-2.56,6.144-4.349,12.634-5.282,19.283c-0.956,6.645-1.131,13.403-0.857,20.131c0.289,6.729,1.018,13.465,2.375,20.077
							L152.228,232.008z"/>
					</g>
					<g>
						<path style="fill:#217A29;" d="M209.103,267.342c0.513-3.35,0.906-6.725,0.617-10.088c-0.008-1.684-0.335-3.342-0.538-5.003
							c-0.372-1.636-0.66-3.288-1.206-4.875c-0.981-3.202-2.387-6.24-3.881-9.221c-1.488-2.993-3.205-5.876-5.115-8.695l0.119-0.114
							c1.323,1.109,2.475,2.397,3.544,3.747c0.554,0.663,1.02,1.388,1.533,2.083l1.367,2.2c1.745,2.991,2.867,6.309,3.7,9.646
							c0.48,1.657,0.698,3.375,0.995,5.066c0.129,1.717,0.377,3.421,0.304,5.142c0.072,3.439-0.549,6.832-1.278,10.147
							L209.103,267.342z"/>
					</g>
					<g>
						<path style="fill:#217A29;" d="M178.128,247.332c-2.288-5.136-3.538-10.693-4.197-16.274
							c-0.627-5.595-0.681-11.247-0.285-16.867c0.4-5.615,1.152-11.251,2.795-16.678c1.705-5.349,3.939-10.795,7.927-14.864
							l0.122,0.11c-3.19,4.596-5.062,9.86-6.468,15.204c-1.398,5.351-2.494,10.808-3.066,16.341
							c-0.553,5.531-0.665,11.12-0.208,16.671c0.436,5.545,1.455,11.093,3.53,16.291L178.128,247.332z"/>
					</g>
					<g>
						<path style="fill:#217A29;" d="M130.143,215.987c-1.701-6.584-2.346-13.426-2.222-20.238
							c0.17-6.814,1.108-13.628,2.964-20.221c1.858-6.562,4.579-13.063,9.022-18.424c2.237-2.639,4.82-5.025,7.787-6.82
							c2.957-1.798,6.253-3.026,9.639-3.482l0.033,0.161c-6.562,1.8-12.157,5.897-16.178,11.172
							c-4.075,5.242-7.041,11.354-9.041,17.765c-1.979,6.426-3.072,13.135-3.403,19.877c-0.341,6.74,0.077,13.554,1.56,20.17
							L130.143,215.987z"/>
					</g>
				</g>
			</g>
			<path style="opacity:0.5;fill:#36A342;" d="M116.188,168.199c-4.507,21.397,9.221,55.046,41.373,67.969
				c32.151,12.924,32.494,25.553,35.327,40.699c2.833,15.146,27.664-9.808,28.624-72.383c0.959-62.575-60.211-83.065-66.289-57.511
				C136.613,135.153,120.061,149.813,116.188,168.199z M155.823,154.409c28.787,15.121,43.397,88.424,43.913,90.603
				c0,0,5.393-43.06-20.582-81.1c-15.979-23.401,0.859-23.304,10.881-17.092c10.022,6.212,36.498,25.977,28.604,78.629
				c-5.525,36.848-20.294,49.038-20.294,49.038c0.523-27.516-21.697-32.113-48.194-60.151
				C123.654,186.296,127.036,139.288,155.823,154.409z"/>
			<path style="opacity:0.5;fill:#36A342;" d="M187.714,150.063c3.183,0.823,5.508,2.979,7.87,5.161
				c2.256,2.085,4.367,4.328,6.314,6.705c3.839,4.69,6.958,10.08,9.328,15.65c5.041,11.85,6.785,24.926,4.827,37.668
				c-1.162,7.562-3.76,14.798-7.361,21.536c-0.27,0.505-1.006-0.094-0.787-0.561c5.51-11.785,7.425-25.469,5.425-38.326
				c-1.779-11.43-6.855-22.077-14.297-30.9c-1.985-2.353-4.036-4.637-6.292-6.736c-2.418-2.249-5.197-4.077-7.06-6.85
				C184.738,152.011,185.853,149.582,187.714,150.063z"/>
			<path style="opacity:0.5;fill:#36A342;" d="M148.847,156.446c19.268,12.983,33.213,33.37,38.232,56.077
				c1.406,6.36,2.031,12.828,1.926,19.338c-0.011,0.673-1.021,0.421-1.052-0.148c-1.195-22.004-10.6-43.437-26.329-58.926
				c-4.439-4.371-9.329-8.243-14.622-11.529c-1.228-0.762-2.073-2.342-1.515-3.777C145.988,156.19,147.677,155.659,148.847,156.446z
				"/>
		</g>
	</g>
	<g>
		<g>
			<g>
				<g>
					<path style="fill:#8AC843;" d="M264.398,322.74c-0.018,0-0.037,0-0.056-0.001c-2.24-0.03-4.04-1.826-4.04-4.066
						c0-0.114,0.01-0.394,0.032-0.846c0.558-11.233,1.245-54.659-13.378-141.828c-0.374-2.231,1.131-4.343,3.363-4.717
						c2.21-0.386,4.342,1.13,4.717,3.361c14.757,87.981,14.048,132.148,13.48,143.589l-0.022,0.494
						C268.432,320.948,266.613,322.74,264.398,322.74z"/>
					<path style="fill:#669629;" d="M264.399,323.559l-0.124-0.005c-2.662-0.034-4.791-2.179-4.791-4.882
						c0-0.118,0.01-0.414,0.033-0.886c0.558-11.214,1.241-54.569-13.367-141.652c-0.218-1.294,0.083-2.597,0.845-3.666
						c0.762-1.069,1.896-1.777,3.191-1.995c1.278-0.216,2.572,0.074,3.646,0.832c1.081,0.765,1.796,1.902,2.014,3.202
						c14.769,88.052,14.059,132.301,13.49,143.765l-0.022,0.491C269.239,321.402,267.034,323.559,264.399,323.559z M251.014,172.04
						c-0.184,0-0.369,0.016-0.553,0.048c-0.869,0.146-1.625,0.619-2.133,1.331c-0.508,0.714-0.708,1.581-0.563,2.443
						c14.635,87.246,13.947,130.749,13.388,142.004c-0.022,0.43-0.031,0.698-0.031,0.806c0,1.795,1.42,3.222,3.232,3.246
						l0.045,0.821v-0.819c1.757,0,3.227-1.443,3.277-3.216l0.023-0.509c0.567-11.427,1.272-55.528-13.469-143.417
						c-0.146-0.867-0.623-1.626-1.345-2.136C252.325,172.247,251.676,172.04,251.014,172.04z"/>
				</g>
				<path style="opacity:0.5;fill:#8AC843;" d="M255.037,174.644c-0.374-2.232-2.507-3.747-4.717-3.361
					c-0.206,0.035-0.399,0.099-0.592,0.161c0.931,0.604,1.627,1.572,1.824,2.751c14.757,87.981,14.048,132.148,13.48,143.589
					l-0.022,0.494c-0.05,1.782-1.239,3.27-2.848,3.795c0.629,0.407,1.374,0.654,2.181,0.665c0.019,0.001,0.038,0.001,0.056,0.001
					c2.214,0,4.034-1.792,4.096-4.012l0.022-0.494C269.085,306.792,269.794,262.625,255.037,174.644z"/>
			</g>
		</g>
		<g>
			<g>
				<g>
					<path style="fill:#8AC843;" d="M232.779,96.064c-16.756-21.032-64.517,24.581-36.388,82.146s62,69.878,58.032,54.61
						c-3.968-15.268-9.149-27.119,15.017-53.09c24.166-25.97,22.238-63.125,8.748-80.99
						C266.596,83.39,244.878,77.011,232.779,96.064z"/>
					<path style="fill:#669629;" d="M250.748,239.646c-10.091,0.002-34.186-18.291-55.093-61.076
						c-19.441-39.785-3.262-73.433,14.434-84.617c8.65-5.469,17.2-5.147,22.605,0.749c4.789-7.04,11.273-10.915,18.812-11.221
						c9.702-0.406,20.162,5.264,27.336,14.765c14.612,19.35,14.561,56.932-8.802,82.043c-22.398,24.07-19.225,35.894-15.552,49.587
						c0.242,0.902,0.487,1.814,0.727,2.738c1.246,4.797-1.217,6.277-2.333,6.69C252.264,239.531,251.549,239.646,250.748,239.646z
						 M222.066,91.656c-3.426,0-7.21,1.222-11.102,3.681c-17.182,10.859-32.834,43.638-13.838,82.513
						c23.356,47.8,48.945,62.207,55.186,59.916c1.922-0.712,1.777-2.971,1.317-4.741c-0.239-0.92-0.482-1.827-0.724-2.726
						c-3.8-14.161-7.082-26.392,15.934-51.128c24.874-26.733,21.032-63.601,8.694-79.937c-6.854-9.078-16.783-14.493-25.962-14.115
						c-7.301,0.296-13.56,4.232-18.102,11.382l-0.616,0.971l-0.716-0.899C229.533,93.303,226.042,91.656,222.066,91.656z"/>
				</g>
				<g>
					<path style="fill:#8AC843;" d="M232.779,96.064c-16.756-21.032-64.517,24.581-36.388,82.146s62,69.878,58.032,54.61
						c-3.968-15.268-9.149-27.119,15.017-53.09c24.166-25.97,22.238-63.125,8.748-80.99
						C266.596,83.39,244.878,77.011,232.779,96.064z"/>
					<path style="fill:#669629;" d="M250.748,239.646c-10.091,0.002-34.186-18.291-55.093-61.076
						c-19.441-39.785-3.262-73.433,14.434-84.617c8.65-5.469,17.2-5.147,22.605,0.749c4.789-7.04,11.273-10.915,18.812-11.221
						c9.702-0.406,20.162,5.264,27.336,14.765c14.612,19.35,14.561,56.932-8.802,82.043c-22.398,24.07-19.225,35.894-15.552,49.587
						c0.242,0.902,0.487,1.814,0.727,2.738c1.246,4.797-1.217,6.277-2.333,6.69C252.264,239.531,251.549,239.646,250.748,239.646z
						 M222.066,91.656c-3.426,0-7.21,1.222-11.102,3.681c-17.182,10.859-32.834,43.638-13.838,82.513
						c23.356,47.8,48.945,62.207,55.186,59.916c1.922-0.712,1.777-2.971,1.317-4.741c-0.239-0.92-0.482-1.827-0.724-2.726
						c-3.8-14.161-7.082-26.392,15.934-51.128c24.874-26.733,21.032-63.601,8.694-79.937c-6.854-9.078-16.783-14.493-25.962-14.115
						c-7.301,0.296-13.56,4.232-18.102,11.382l-0.616,0.971l-0.716-0.899C229.533,93.303,226.042,91.656,222.066,91.656z"/>
				</g>
				<g>
					<path style="fill:#669629;" d="M245.593,85.221c-1.658,0.599-3.463,0.968-4.994,1.931c-0.777,0.446-1.638,0.785-2.357,1.329
						l-2.19,1.612c-2.724,2.373-5.158,5.157-6.986,8.285c-3.797,6.206-5.957,13.208-7.432,20.209l-0.878,5.303l-0.63,5.328
						l-0.34,5.344c-0.082,1.782-0.092,3.563-0.141,5.344c-0.04,7.126,0.372,14.22,1.147,21.298c0.123,1.775,0.391,3.533,0.673,5.289
						l0.806,5.27c0.626,3.496,1.413,6.966,2.181,10.431l1.393,5.142l0.696,2.57l0.83,2.53l1.661,5.057l1.909,4.967
						c5.304,13.131,12.191,25.723,21.417,36.48l0.249-0.226c-8.822-10.976-15.268-23.713-20.094-36.855l-1.769-4.954l-1.521-5.035
						l-0.76-2.516l-0.626-2.553l-1.253-5.103c-0.675-3.436-1.368-6.872-1.903-10.329l-0.669-5.207
						c-0.237-1.733-0.459-3.468-0.538-5.218c-0.551-6.97-0.746-13.986-0.495-20.968c0.08-1.743,0.12-3.49,0.231-5.23l0.401-5.211
						l0.548-5.188l0.786-5.146c1.089-6.843,2.998-13.569,6.16-19.66c1.501-3.099,3.587-5.852,5.976-8.307
						c2.396-2.493,5.407-4.255,8.614-5.692L245.593,85.221z"/>
				</g>
				<g>
					<g>
						<path style="fill:#669629;" d="M190.879,163.793c0.856-5.335,2.276-10.573,4.058-15.657
							c1.775-5.086,3.989-10.019,6.729-14.626c2.761-4.6,6.14-8.77,9.958-12.456c1.893-1.869,4.004-3.493,6.195-5.015
							c2.212-1.5,4.592-2.733,7.044-3.897l-0.055-0.159c-2.624,0.714-5.191,1.723-7.6,3.055c-2.392,1.353-4.641,2.971-6.724,4.779
							c-2.036,1.86-3.904,3.899-5.558,6.096c-1.626,2.217-3.097,4.534-4.425,6.924c-2.648,4.786-4.73,9.849-6.362,15.035
							c-1.583,5.201-2.788,10.513-3.426,15.901L190.879,163.793z"/>
					</g>
					<g>
						<path style="fill:#669629;" d="M208.6,201.076c-0.609-4.912-0.718-9.88-0.525-14.811c0.184-4.934,0.751-9.846,1.72-14.665
							c0.987-4.827,2.632-9.453,4.422-13.99c1.799-4.566,4.362-8.727,7.112-12.875l-0.127-0.11
							c-3.506,3.542-6.399,7.745-8.527,12.309c-2.057,4.595-3.383,9.483-4.203,14.414c-0.819,4.935-1.223,9.92-1.239,14.9
							c0.031,4.979,0.366,9.954,1.201,14.855L208.6,201.076z"/>
					</g>
					<g>
						<path style="fill:#669629;" d="M272.57,173.554c-1.407-6.787-3.454-13.432-5.923-19.918
							c-2.535-6.458-5.511-12.773-9.202-18.689c-3.647-5.923-7.958-11.553-13.318-16.114c-2.718-2.221-5.597-4.254-8.696-5.899
							c-3.126-1.591-6.415-2.83-9.802-3.613l-0.047,0.162c3.235,1.241,6.34,2.71,9.27,4.473c2.898,1.817,5.639,3.859,8.168,6.147
							c5.046,4.579,9.529,9.814,13.288,15.568c3.779,5.741,6.883,11.926,9.557,18.28c2.661,6.361,4.918,12.919,6.539,19.637
							L272.57,173.554z"/>
					</g>
					<g>
						<path style="fill:#669629;" d="M235.252,231.052c-1.934-2.881-3.767-5.837-4.963-9.079c-0.725-1.564-1.144-3.242-1.679-4.87
							c-0.367-1.678-0.82-3.334-1.005-5.042c-0.485-3.395-0.505-6.821-0.418-10.234c0.075-3.421,0.412-6.84,0.954-10.283
							l-0.16-0.054c-0.743,1.603-1.25,3.298-1.653,5.015c-0.224,0.855-0.341,1.73-0.514,2.598l-0.309,2.633
							c-0.315,3.531,0.089,7.093,0.771,10.549c0.276,1.745,0.823,3.431,1.283,5.127c0.628,1.647,1.14,3.334,1.957,4.897
							c1.43,3.218,3.482,6.092,5.601,8.846L235.252,231.052z"/>
					</g>
					<g>
						<path style="fill:#669629;" d="M255.242,199.027c-0.116-5.755-1.376-11.448-3.195-16.906
							c-1.855-5.457-4.265-10.717-7.078-15.753c-2.815-5.028-5.965-9.923-9.85-14.237c-3.908-4.214-8.349-8.288-13.816-10.323
							l-0.066,0.155c4.956,2.87,8.983,6.932,12.612,11.273c3.624,4.35,7.016,8.929,9.955,13.807
							c2.921,4.884,5.457,10.014,7.45,15.357c2.01,5.328,3.48,10.912,3.821,16.632L255.242,199.027z"/>
					</g>
					<g>
						<path style="fill:#669629;" d="M286.06,149.094c-1.29-6.841-3.67-13.462-6.751-19.72c-3.123-6.24-6.959-12.145-11.549-17.447
							c-4.578-5.272-9.93-10.11-16.38-13.144c-3.222-1.472-6.654-2.558-10.184-2.929c-3.522-0.379-7.112-0.081-10.447,0.97
							l0.04,0.164c6.864-1.189,13.832,0.172,19.854,3.31c6.058,3.083,11.467,7.456,16.111,12.526
							c4.63,5.093,8.564,10.833,11.806,16.936c3.25,6.097,5.828,12.593,7.335,19.369L286.06,149.094z"/>
					</g>
				</g>
			</g>
			<path style="opacity:0.5;fill:#8AC843;" d="M232.779,96.064c-16.756-21.032-64.517,24.581-36.388,82.145
				c28.129,57.564,62,69.878,58.031,54.61c-3.968-15.268-9.148-27.119,15.017-53.089c24.165-25.971,22.238-63.125,8.748-80.99
				C266.596,83.39,244.877,77.011,232.779,96.064z M266.801,156.274c-12.347,37.514-30.935,51.447-18.472,76.715
				c0,0-18.991-4.867-40.151-36.605c-30.235-45.351-14.306-75.191-7.724-85.309c6.582-10.118,22.142-17.538,17.522,11.101
				c-7.509,46.555,16.232,84.107,16.232,84.107c-0.47-2.243-18.842-76.526,1.25-103.068
				C255.551,76.674,279.148,118.759,266.801,156.274z"/>
			<path style="opacity:0.5;fill:#8AC843;" d="M204.018,113.071c-2.591,2.148-3.807,5.158-5.046,8.209
				c-1.183,2.914-2.163,5.912-2.931,8.962c-1.516,6.017-2.06,12.369-1.83,18.562c0.488,13.175,4.564,26.05,11.925,37.004
				c4.369,6.501,9.926,12.075,16.195,16.751c0.47,0.35,0.891-0.525,0.485-0.863c-10.236-8.521-17.967-20.367-21.71-33.151
				c-3.327-11.365-3.258-23.441-0.204-34.855c0.815-3.044,1.721-6.054,2.898-8.98c1.261-3.137,3.04-6.04,3.56-9.42
				C207.623,113.581,205.533,111.815,204.018,113.071z"/>
			<path style="opacity:0.5;fill:#8AC843;" d="M242.811,102.067c-12.202,20.418-16.249,45.379-11.015,68.604
				c1.466,6.505,3.702,12.77,6.634,18.757c0.303,0.619,1.13-0.055,0.911-0.595c-8.471-20.909-9.086-44.862-1.255-66.062
				c2.21-5.982,5.056-11.7,8.53-17.048c0.806-1.241,0.901-3.073-0.24-4.159C245.347,100.585,243.551,100.828,242.811,102.067z"/>
		</g>
	</g>
	<g>
		<g>
			<ellipse style="fill:#54549B;" cx="196.546" cy="481.914" rx="124.732" ry="21.293"/>
			<path style="fill:#474789;" d="M196.546,504.025c-61.715,0-125.552-8.27-125.552-22.11c0-13.841,63.836-22.112,125.552-22.112
				s125.551,8.27,125.551,22.112C322.097,495.755,258.261,504.025,196.546,504.025z M196.546,461.441
				c-74.122,0-123.913,10.585-123.913,20.473c0,9.886,49.792,20.472,123.913,20.472s123.913-10.585,123.913-20.472
				C320.458,472.027,270.668,461.441,196.546,461.441z"/>
		</g>
		<ellipse style="opacity:0.4;fill:#6E6EBA;" cx="196.546" cy="485.962" rx="101.018" ry="17.244"/>
		<g>
			<path style="fill:#6260AC;" d="M196.546,472.575c68.888,0,124.732,9.533,124.732,21.293v-11.954
				c0-11.759-55.844-21.293-124.732-21.293s-124.732,9.533-124.732,21.293v11.954C71.813,482.108,127.658,472.575,196.546,472.575z"
				/>
			<path style="fill:#474789;" d="M321.277,494.688c-0.453,0-0.819-0.366-0.819-0.819c0-9.888-49.791-20.474-123.913-20.474
				S72.632,483.98,72.632,493.868c0,0.453-0.366,0.819-0.819,0.819c-0.453,0-0.819-0.366-0.819-0.819v-11.954
				c0-13.841,63.836-22.112,125.552-22.112s125.551,8.27,125.551,22.112v11.954C322.097,494.321,321.73,494.688,321.277,494.688z
				 M196.546,461.441c-74.122,0-123.913,10.585-123.913,20.473v8.198c10.35-11.568,68.003-18.357,123.913-18.357
				s113.562,6.789,123.913,18.357v-8.198C320.458,472.027,270.668,461.441,196.546,461.441z"/>
		</g>
		<path style="opacity:0.4;fill:#6E6EBA;" d="M196.546,472.575c68.888,0,124.732,9.533,124.732,21.293v-6.865
			c0-11.759-55.844-21.293-124.732-21.293s-124.732,9.533-124.732,21.293v6.865C71.813,482.108,127.658,472.575,196.546,472.575z"/>
		<g>
			<path style="fill:#6E6EBA;" d="M196.546,503.207c-68.888,0-124.732-9.533-124.732-21.293v11.954
				c0,11.759,55.844,21.292,124.732,21.292s124.732-9.533,124.732-21.292v-11.954C321.278,493.674,265.434,503.207,196.546,503.207z
				"/>
			<path style="fill:#474789;" d="M196.546,515.98c-61.715,0-125.552-8.27-125.552-22.112v-11.954c0-0.453,0.366-0.819,0.819-0.819
				c0.453,0,0.819,0.366,0.819,0.819c0,9.886,49.792,20.472,123.913,20.472s123.913-10.585,123.913-20.472
				c0-0.453,0.366-0.819,0.819-0.819s0.819,0.366,0.819,0.819v11.954C322.097,507.71,258.261,515.98,196.546,515.98z
				 M72.632,485.668v8.2c0,9.888,49.792,20.473,123.913,20.473s123.913-10.586,123.913-20.473v-8.2
				c-10.35,11.568-68.002,18.357-123.913,18.357S82.983,497.236,72.632,485.668z"/>
		</g>
		<path style="opacity:0.4;fill:#6E6EBA;" d="M196.546,510.562c-99.349,0-124.732-16.889-124.732-28.648v11.954
			c0,11.759,55.844,21.292,124.732,21.292s124.732-9.533,124.732-21.292v-11.954C321.278,493.674,299.613,510.562,196.546,510.562z"
			/>
	</g>
	<g>
		<g>
			<g>
				<path style="fill:#6260AC;" d="M293.319,323.126c-12.958,12.231-25.419,12.435-35.319,0.583
					c-14.031-16.798-25.655-16.871-41.132-0.139c-12.688,13.717-26.491,12.967-35.276,0.558
					c-8.784-12.409-18.962-13.943-31.65,0.279c-15.944,17.871-28.443,15.756-37.646,3.625c-7.2-9.491-14.327-11.014-23.828-6.231
					l24.792,156.271c2.146,12.239,41.441,21.731,87.862,21.731c46.421,0,85.717-9.492,87.862-21.731l26.504-167.056
					C309.769,310.465,302.757,314.219,293.319,323.126z"/>
				<path style="fill:#474789;" d="M201.122,500.622c-47.518,0-86.466-9.843-88.669-22.409L87.659,321.929
					c-0.056-0.352,0.122-0.699,0.441-0.859c10.115-5.091,17.547-3.16,24.849,6.467c4.427,5.835,9.334,8.901,14.585,9.109
					c6.67,0.245,13.993-4.037,21.798-12.784c6.524-7.312,12.505-10.678,18.267-10.386c5.227,0.294,10.023,3.624,14.663,10.178
					c3.977,5.619,8.994,8.779,14.51,9.139c6.429,0.403,13.188-2.96,19.495-9.779c8.214-8.878,15.222-12.904,22.061-12.762
					c6.621,0.168,13.071,4.277,20.301,12.933c4.405,5.272,9.318,8.105,14.604,8.417c6.206,0.387,12.758-2.683,19.524-9.07
					c9.527-8.994,16.759-12.915,22.811-12.333c0.225,0.022,0.431,0.136,0.57,0.315c0.138,0.178,0.197,0.406,0.161,0.629
					L289.794,478.2C287.589,490.779,248.641,500.622,201.122,500.622z M89.372,322.268l24.697,155.676
					c2.033,11.595,41.086,21.04,87.053,21.04c45.968,0,85.021-9.445,87.055-21.053l26.36-166.148
					c-0.054-0.002-0.108-0.002-0.162-0.002c-5.345,0-11.899,3.827-20.495,11.941c-7.108,6.71-14.089,9.915-20.745,9.517
					c-5.754-0.341-11.058-3.371-15.765-9.005c-6.905-8.267-12.969-12.189-19.085-12.344c-6.319-0.198-12.945,3.726-20.817,12.237
					c-6.654,7.19-13.854,10.757-20.805,10.301c-6.026-0.394-11.469-3.792-15.742-9.827c-4.333-6.12-8.721-9.224-13.417-9.488
					c-5.147-0.282-10.868,3.018-16.953,9.84c-8.146,9.131-15.908,13.608-23.086,13.331c-5.763-0.23-11.087-3.512-15.825-9.758
					C104.961,319.718,98.475,317.875,89.372,322.268z M293.319,323.127h0.016H293.319z"/>
			</g>
			<path style="opacity:0.4;fill:#6E6EBA;" d="M298.667,318.425L274.172,472.82c-2.078,11.855-40.139,21.048-85.101,21.048
				c-30.156,0-57.189-4.139-72.362-10.439c10.796,9.543,45.035,16.375,84.413,16.375c46.421,0,85.717-9.492,87.862-21.731
				l26.504-167.056C310.907,310.575,305.491,312.905,298.667,318.425z"/>
			<path style="opacity:0.4;fill:#6E6EBA;" d="M293.319,323.126c-12.958,12.231-25.419,12.435-35.319,0.583
				c-14.031-16.798-25.655-16.871-41.132-0.139c-12.688,13.717-26.491,12.967-35.276,0.558c-8.784-12.409-18.962-13.943-31.65,0.279
				c-15.944,17.871-28.443,15.756-37.646,3.625c-7.2-9.491-14.327-11.014-23.828-6.231l6.247,39.378
				c28.321-29.311,143.46-34.311,161.419,17.41c15.54,44.754-13.22,103.325-81.905,103.325c-32.058,0-51.584-8.969-63.3-18.533
				l2.331,14.691c2.146,12.239,41.441,21.731,87.862,21.731c46.421,0,85.717-9.492,87.862-21.731l26.504-167.056
				C309.769,310.465,302.757,314.219,293.319,323.126z"/>
			<path style="opacity:0.4;fill:#6260AC;" d="M132.47,385.819c10.006,73.38,58.251,87.33,101.402,62.672
				c9.859-5.633-30.131,40.649-91.191,9.154c-30.259-15.607-37.977-50.154-37.189-71.798
				C106.416,360.469,127.999,353.025,132.47,385.819z"/>
		</g>
		<g>
			<path style="opacity:0.4;fill:#6E6EBA;" d="M292.187,312.331c-12.678,13.768-22.54,12.903-33.045-0.309
				c-15.799-19.87-33.131-12.108-44.175-0.443c-11.044,11.665-18.855,13.924-28.013,3.15c-9.158-10.774-24.243-18.047-37.71-4.063
				c-13.468,13.985-22.088,12.413-33.131,1.908c-7.321-6.964-18.72-11.047-29.866-8.349c1.329,6.088,1.517,12.377,2.615,18.561
				c0.228,1.286,0.501,2.568,0.787,3.85c8.923-4.08,15.747-2.277,22.649,6.822c9.202,12.13,21.702,14.246,37.646-3.625
				c12.688-14.222,22.867-12.688,31.65-0.279c8.784,12.409,22.587,13.159,35.276-0.558c15.477-16.732,27.101-16.658,41.132,0.139
				c9.9,11.852,22.36,11.648,35.319-0.583c9.31-8.787,16.256-12.546,21.933-12.118c0.488-5.712,0.843-11.432,0.938-17.168
				C308.527,299.581,300.112,303.724,292.187,312.331z"/>
			<g>
				<path style="fill:#6E6EBA;" d="M336.718,305.329c-9.557-14.975-28.1-16.268-44.531,1.576
					c-12.678,13.768-22.54,12.903-33.045-0.309c-15.799-19.87-33.131-12.108-44.175-0.443c-11.044,11.665-18.855,13.924-28.014,3.15
					c-9.158-10.774-24.242-18.047-37.71-4.063c-13.468,13.985-22.087,12.413-33.131,1.908
					c-11.044-10.505-31.369-14.473-46.108,1.544c-16.129,17.527-2.969,28.093,9.945,18.504
					c14.082-10.457,23.145-11.294,32.348,0.837c9.202,12.13,21.702,14.246,37.646-3.625c12.688-14.222,22.867-12.688,31.651-0.279
					c8.784,12.409,22.587,13.159,35.276-0.558c15.477-16.732,27.101-16.658,41.132,0.139c9.9,11.852,22.36,11.648,35.319-0.583
					c15.236-14.381,24.16-15.356,31.509-6.411C332.177,325.662,345.72,319.436,336.718,305.329z"/>
				<path style="fill:#474789;" d="M128.113,338.297c-0.216,0-0.43-0.005-0.646-0.013c-5.763-0.23-11.087-3.512-15.825-9.758
					c-8.545-11.261-16.712-11.434-31.207-0.672c-6.965,5.171-13.675,4.477-16.702,1.112c-3.227-3.586-3.433-10.939,5.666-20.829
					c6.35-6.899,14.257-10.699,22.868-10.986c8.782-0.306,17.911,3.222,24.408,9.403c10.21,9.714,18.331,12.286,31.976-1.882
					c5.273-5.477,11.145-8.168,17.416-7.958c7.35,0.229,15.19,4.624,21.51,12.057c3.733,4.394,7.275,6.574,10.828,6.67
					c4.438,0.086,9.402-2.918,15.966-9.853c7.654-8.085,16.335-12.341,24.442-11.995c7.584,0.328,14.639,4.531,20.969,12.491
					c5.187,6.525,10.088,9.782,14.982,9.96c5.167,0.211,10.64-2.985,16.818-9.696c8.624-9.366,18.424-14.073,27.579-13.27
					c7.318,0.646,13.797,4.84,18.245,11.81c4.966,7.781,3.154,13.137,0.093,15.36c-3.289,2.384-9.071,2.142-13.306-3.013
					c-2.837-3.453-5.821-5.234-9.123-5.442c-5.47-0.352-12.2,3.443-21.19,11.928c-7.109,6.71-14.076,9.915-20.747,9.517
					c-5.754-0.342-11.057-3.371-15.764-9.005c-6.905-8.267-12.969-12.189-19.085-12.344c-6.319-0.198-12.945,3.726-20.817,12.237
					c-6.654,7.192-13.848,10.746-20.805,10.301c-6.025-0.394-11.468-3.792-15.74-9.827c-4.333-6.12-8.722-9.224-13.418-9.488
					c-5.146-0.29-10.869,3.018-16.953,9.84C142.651,333.81,135.105,338.295,128.113,338.297z M98.02,318.371
					c5.552,0,10.287,3.048,14.929,9.166c4.427,5.835,9.334,8.901,14.585,9.109c6.67,0.245,13.993-4.037,21.798-12.784
					c6.524-7.312,12.505-10.678,18.267-10.386c5.227,0.294,10.023,3.624,14.664,10.178c3.977,5.619,8.993,8.779,14.51,9.139
					c6.429,0.403,13.188-2.96,19.495-9.779c8.214-8.878,15.222-12.904,22.061-12.762c6.621,0.168,13.071,4.277,20.301,12.933
					c4.405,5.272,9.318,8.105,14.604,8.417c6.195,0.373,12.758-2.686,19.525-9.07c9.342-8.818,16.445-12.784,22.418-12.373
					c3.781,0.238,7.146,2.214,10.285,6.037c3.6,4.381,8.395,4.674,11.078,2.726c2.604-1.89,3.838-6.337-0.511-13.153
					c-4.168-6.53-10.208-10.458-17.008-11.058c-8.642-0.763-17.958,3.765-26.23,12.749c-6.522,7.083-12.414,10.441-18.082,10.222
					c-5.402-0.195-10.702-3.654-16.206-10.576c-6.021-7.574-12.669-11.568-19.757-11.875c-10.291-0.482-18.941,7.005-23.181,11.485
					c-6.912,7.301-12.194,10.483-17.201,10.363c-4.045-0.107-7.98-2.478-12.032-7.245c-6.021-7.083-13.424-11.269-20.312-11.482
					c-5.823-0.203-11.247,2.328-16.185,7.456c-14.523,15.078-23.569,12.128-34.286,1.933c-6.185-5.883-14.887-9.246-23.224-8.952
					c-8.162,0.27-15.671,3.886-21.716,10.458c-8.365,9.09-8.274,15.712-5.655,18.622c2.53,2.813,8.326,3.256,14.508-1.331
					C86.784,321.1,92.768,318.371,98.02,318.371z"/>
			</g>
			<path style="fill:#6E6EBA;" d="M70.004,312.574c14.739-16.017,35.064-12.049,46.108-1.544
				c11.044,10.505,19.663,12.077,33.131-1.908c13.468-13.984,28.552-6.712,37.71,4.063c9.158,10.774,16.97,8.515,28.013-3.15
				c11.044-11.665,28.377-19.427,44.175,0.443c10.505,13.212,20.367,14.077,33.045,0.309c16.431-17.844,34.974-16.551,44.531-1.576
				c1.543,2.418,2.411,4.598,2.774,6.516c0.595-2.62-0.062-6.148-2.774-10.398c-9.557-14.975-28.1-16.268-44.531,1.576
				c-12.678,13.768-22.54,12.903-33.045-0.309c-15.799-19.87-33.131-12.108-44.175-0.443c-11.044,11.665-18.855,13.924-28.013,3.15
				c-9.158-10.774-24.243-18.047-37.71-4.063c-13.468,13.985-22.088,12.413-33.131,1.908c-11.044-10.505-31.369-14.473-46.108,1.544
				c-6.251,6.793-8.09,12.532-7.262,16.465C63.366,321.668,65.576,317.386,70.004,312.574z"/>
			<path style="opacity:0.4;fill:#6E6EBA;" d="M324.828,310.424c-7.349-8.946-16.272-7.97-31.509,6.411
				c-12.958,12.231-25.419,12.435-35.319,0.583c-14.031-16.798-25.655-16.871-41.132-0.14
				c-12.688,13.717-26.491,12.967-35.276,0.558c-8.784-12.409-18.962-13.943-31.65,0.279c-15.944,17.871-28.443,15.755-37.646,3.625
				c-9.202-12.13-18.265-11.294-32.348-0.837c-7.43,5.518-14.93,4.354-16.897-0.96c-2.845,10.187,7.09,14.535,16.897,7.252
				c14.082-10.457,23.145-11.294,32.348,0.837c9.202,12.13,21.702,14.246,37.646-3.625c12.688-14.222,22.867-12.688,31.65-0.279
				c8.784,12.409,22.587,13.159,35.276-0.558c15.477-16.732,27.101-16.658,41.132,0.139c9.9,11.852,22.36,11.648,35.319-0.583
				c15.237-14.381,24.16-15.357,31.509-6.411c6.372,7.757,17.393,4.101,14.341-6.204
				C337.124,315.633,329.645,316.289,324.828,310.424z"/>
		</g>
	</g>
</g>
</svg>
